G04*
G04 #@! TF.GenerationSoftware,Altium Limited,Altium Designer,23.4.1 (23)*
G04*
G04 Layer_Color=16711935*
%FSLAX25Y25*%
%MOIN*%
G70*
G04*
G04 #@! TF.SameCoordinates,8CB6A174-BB40-4334-975E-19112FE07875*
G04*
G04*
G04 #@! TF.FilePolarity,Positive*
G04*
G01*
G75*
%ADD88C,0.00394*%
D88*
X126182Y190D02*
G03*
X126182Y190I-1392J0D01*
G01*
X136868Y-36901D02*
G03*
X136868Y-36901I-1969J0D01*
G01*
X108054Y3146D02*
X127746D01*
Y-16546D02*
Y3146D01*
Y-16546D02*
Y-16543D01*
X108054D02*
X127746D01*
X108054D02*
Y3146D01*
X71841Y-73606D02*
X76959D01*
X71841Y-61795D02*
X76959D01*
X71841Y-73606D02*
Y-61795D01*
X76959Y-73606D02*
Y-61795D01*
X138443Y-53043D02*
Y-33358D01*
X118757Y-53043D02*
Y-33358D01*
X138443D01*
X118757Y-53043D02*
X138443D01*
X76959Y-94055D02*
Y-82244D01*
X71841Y-94055D02*
Y-82244D01*
X76959D01*
X71841Y-94055D02*
X76959D01*
Y-114506D02*
Y-102694D01*
X71841Y-114506D02*
Y-102694D01*
X76959D01*
X71841Y-114506D02*
X76959D01*
X155069Y-101864D02*
X161958Y-101864D01*
X155069Y-89856D02*
X161958D01*
X155069Y-101864D02*
Y-89856D01*
X161958Y-101864D02*
Y-89856D01*
M02*
