G04*
G04 #@! TF.GenerationSoftware,Altium Limited,Altium Designer,23.4.1 (23)*
G04*
G04 Layer_Color=8388736*
%FSLAX25Y25*%
%MOIN*%
G70*
G04*
G04 #@! TF.SameCoordinates,8CB6A174-BB40-4334-975E-19112FE07875*
G04*
G04*
G04 #@! TF.FilePolarity,Negative*
G04*
G01*
G75*
%ADD13R,0.25300X0.09395*%
%ADD14R,0.05918X0.01981*%
%ADD15R,0.07493X0.07493*%
%ADD16C,0.07493*%
%ADD17R,0.09855X0.09855*%
%ADD18C,0.09855*%
%ADD19C,0.08674*%
%ADD20O,0.08674X0.05524*%
%ADD21O,0.07887X0.05524*%
%ADD22C,0.03753*%
%ADD23C,0.07887*%
%ADD24C,0.07099*%
D13*
X138050Y18402D02*
D03*
D14*
X136673Y-85511D02*
D03*
Y-86692D02*
D03*
X136672Y-88660D02*
D03*
Y-89842D02*
D03*
X136673Y-91810D02*
D03*
X136669Y-93780D02*
D03*
X136673Y-95747D02*
D03*
Y-97716D02*
D03*
Y-99684D02*
D03*
Y-101653D02*
D03*
Y-103621D02*
D03*
X136669Y-105590D02*
D03*
X136673Y-107558D02*
D03*
Y-108739D02*
D03*
Y-110708D02*
D03*
Y-111889D02*
D03*
D15*
X122200Y-82700D02*
D03*
D16*
Y-92700D02*
D03*
Y-102700D02*
D03*
Y-112700D02*
D03*
D17*
X12600Y5000D02*
D03*
Y-43215D02*
D03*
D18*
Y-15000D02*
D03*
Y-102270D02*
D03*
Y-82585D02*
D03*
Y-62900D02*
D03*
D19*
X157548Y-47273D02*
D03*
Y13357D02*
D03*
X41800Y-26800D02*
D03*
Y-7115D02*
D03*
D20*
X140875Y-115708D02*
D03*
Y-81692D02*
D03*
D21*
X157332D02*
D03*
Y-115708D02*
D03*
D22*
X142962Y-87322D02*
D03*
Y-110078D02*
D03*
D23*
X36900Y-74600D02*
D03*
X56900D02*
D03*
X36900Y-115200D02*
D03*
X56900D02*
D03*
X36900Y-94900D02*
D03*
X56900D02*
D03*
D24*
X96900Y-74600D02*
D03*
X106900D02*
D03*
X96900Y-115200D02*
D03*
X106900D02*
D03*
X96900Y-94900D02*
D03*
X106900D02*
D03*
M02*
