G04*
G04 #@! TF.GenerationSoftware,Altium Limited,Altium Designer,23.4.1 (23)*
G04*
G04 Layer_Color=255*
%FSLAX25Y25*%
%MOIN*%
G70*
G04*
G04 #@! TF.SameCoordinates,8CB6A174-BB40-4334-975E-19112FE07875*
G04*
G04*
G04 #@! TF.FilePolarity,Positive*
G04*
G01*
G75*
%ADD12R,0.05118X0.01181*%
%ADD29R,0.06693X0.06693*%
%ADD30C,0.06693*%
%ADD31R,0.09055X0.09055*%
%ADD32C,0.09055*%
%ADD33C,0.07874*%
%ADD34O,0.07874X0.04724*%
%ADD35O,0.07087X0.04724*%
%ADD36C,0.02953*%
%ADD37C,0.07087*%
%ADD38C,0.06299*%
D12*
X136673Y-85511D02*
D03*
Y-86692D02*
D03*
X136672Y-88660D02*
D03*
Y-89842D02*
D03*
X136673Y-91810D02*
D03*
X136669Y-93780D02*
D03*
X136673Y-95747D02*
D03*
Y-97716D02*
D03*
Y-99684D02*
D03*
Y-101653D02*
D03*
Y-103621D02*
D03*
X136669Y-105590D02*
D03*
X136673Y-107558D02*
D03*
Y-108739D02*
D03*
Y-110708D02*
D03*
Y-111889D02*
D03*
D29*
X122200Y-82700D02*
D03*
D30*
Y-92700D02*
D03*
Y-102700D02*
D03*
Y-112700D02*
D03*
D31*
X12600Y5000D02*
D03*
Y-43215D02*
D03*
D32*
Y-15000D02*
D03*
Y-102270D02*
D03*
Y-82585D02*
D03*
Y-62900D02*
D03*
D33*
X157548Y-47273D02*
D03*
Y13357D02*
D03*
X41800Y-26800D02*
D03*
Y-7115D02*
D03*
D34*
X140875Y-115708D02*
D03*
Y-81692D02*
D03*
D35*
X157332D02*
D03*
Y-115708D02*
D03*
D36*
X142962Y-87322D02*
D03*
Y-110078D02*
D03*
D37*
X36900Y-74600D02*
D03*
X56900D02*
D03*
X36900Y-115200D02*
D03*
X56900D02*
D03*
X36900Y-94900D02*
D03*
X56900D02*
D03*
D38*
X96900Y-74600D02*
D03*
X106900D02*
D03*
X96900Y-115200D02*
D03*
X106900D02*
D03*
X96900Y-94900D02*
D03*
X106900D02*
D03*
M02*
