M48
;Layer_Color=9474304
;FILE_FORMAT=2:5
INCH,TZ
;TYPE=PLATED
T1F00S00C0.00787
T2F00S00C0.01000
T3F00S00C0.01181
T5F00S00C0.03543
T6F00S00C0.03937
T7F00S00C0.04724
T8F00S00C0.05118
;TYPE=NON_PLATED
T9F00S00C0.02953
%
T01
X124269Y-47531
Y-43200
Y-38869
X128600
X132931
Y-43200
X128600
Y-47531
X132931
T02
X131600Y12200
X134600
X137600
X140600
X143600
X146600
X149600
X152200Y17300
Y20300
T03
X96400Y-108800
X100337
X100237Y-88800
X96300
X96500Y-68200
X100437
X112319Y-57100
X118700Y-57200
X137300Y-60000
X139100Y-65900
X156200Y-66337
Y-62400
Y-70274
X161400Y-95900
X145500Y-99500
X142800Y-103600
X143200Y-93000
X149000Y-109400
X143500Y-47400
X143800Y-41000
X143600Y-37000
X138300Y-30000
X136900Y-17600
X130500Y-21600
X127100Y-24000
X124400Y-21300
X124500Y-27800
X118900Y-30400
X112300Y-31300
X112319Y-26800
X105400Y-27100
Y-23700
X105437Y-31378
X101500
Y-35315
X105437
Y-39252
X101500
Y-43189
X105437
X112300Y-39000
X112626Y-10074
X116563
X120500
Y-6137
X116563
X112626
Y-2200
X116563
X120500
X103237Y-2063
X99300
Y-6000
X103237
X89637Y-7637
X85700
Y-3700
X89637
Y237
X85700
X156900Y-15200
X160837
Y-19137
X156900
X116200Y8900
X113000
X115200Y17800
X123700Y16700
Y20637
X89637Y4174
X85700
T05
X122200Y-112700
Y-102700
Y-92700
Y-82700
T06
X96900Y-115200
X106900
Y-94900
X96900
Y-74600
X106900
T07
X36900Y-115200
X56900
Y-94900
X36900
Y-74600
X56900
X41800Y-26800
Y-7115
X12600Y-15000
X157548Y-47273
Y13357
X12600Y5000
T08
X12600Y-102270
Y-82585
Y-62900
Y-43215
T09
X142962Y-110078
Y-87322
M30
