G04*
G04 #@! TF.GenerationSoftware,Altium Limited,Altium Designer,23.4.1 (23)*
G04*
G04 Layer_Physical_Order=1*
G04 Layer_Color=255*
%FSLAX25Y25*%
%MOIN*%
G70*
G04*
G04 #@! TF.SameCoordinates,8CB6A174-BB40-4334-975E-19112FE07875*
G04*
G04*
G04 #@! TF.FilePolarity,Positive*
G04*
G01*
G75*
%ADD11C,0.01000*%
%ADD12R,0.05118X0.01181*%
%ADD25C,0.00800*%
%ADD26C,0.01500*%
%ADD27C,0.00600*%
%ADD28C,0.10000*%
%ADD29R,0.06693X0.06693*%
%ADD30C,0.06693*%
%ADD31R,0.09055X0.09055*%
%ADD32C,0.09055*%
%ADD33C,0.07874*%
%ADD34O,0.07874X0.04724*%
%ADD35O,0.07087X0.04724*%
%ADD36C,0.02953*%
%ADD37C,0.07087*%
%ADD38C,0.06299*%
%ADD39C,0.02362*%
%ADD40C,0.02000*%
%ADD41C,0.01968*%
G36*
X166324Y-119024D02*
X160536D01*
X160366Y-118524D01*
X160911Y-118106D01*
X161450Y-117404D01*
X161788Y-116586D01*
X161838Y-116208D01*
X157332D01*
X152825D01*
X152875Y-116586D01*
X153214Y-117404D01*
X153753Y-118106D01*
X154297Y-118524D01*
X154127Y-119024D01*
X144473D01*
X144303Y-118524D01*
X144847Y-118106D01*
X145386Y-117404D01*
X145725Y-116586D01*
X145775Y-116208D01*
X140875D01*
X135974D01*
X136024Y-116586D01*
X136363Y-117404D01*
X136902Y-118106D01*
X137446Y-118524D01*
X137276Y-119024D01*
X108777D01*
X108643Y-118524D01*
X109202Y-118200D01*
X109900Y-117502D01*
X110394Y-116647D01*
X110650Y-115694D01*
Y-114706D01*
X110394Y-113753D01*
X109900Y-112898D01*
X109616Y-112613D01*
X109570Y-112497D01*
X109305Y-112225D01*
X109080Y-111971D01*
X108886Y-111724D01*
X108721Y-111485D01*
X108586Y-111255D01*
X108479Y-111035D01*
X108398Y-110826D01*
X108343Y-110626D01*
X108311Y-110435D01*
X108298Y-110214D01*
X108276Y-110169D01*
Y-99931D01*
X108298Y-99886D01*
X108311Y-99665D01*
X108343Y-99474D01*
X108398Y-99274D01*
X108479Y-99065D01*
X108586Y-98845D01*
X108722Y-98615D01*
X108881Y-98384D01*
X109311Y-97868D01*
X109570Y-97602D01*
X109616Y-97487D01*
X109900Y-97202D01*
X110394Y-96347D01*
X110650Y-95394D01*
Y-94406D01*
X110394Y-93453D01*
X109900Y-92598D01*
X109616Y-92313D01*
X109570Y-92198D01*
X109305Y-91925D01*
X109080Y-91671D01*
X108886Y-91424D01*
X108721Y-91185D01*
X108586Y-90955D01*
X108479Y-90735D01*
X108398Y-90526D01*
X108343Y-90326D01*
X108311Y-90135D01*
X108298Y-89914D01*
X108276Y-89869D01*
Y-79631D01*
X108298Y-79586D01*
X108311Y-79365D01*
X108343Y-79174D01*
X108398Y-78974D01*
X108479Y-78765D01*
X108586Y-78545D01*
X108722Y-78315D01*
X108881Y-78084D01*
X109311Y-77568D01*
X109570Y-77302D01*
X109616Y-77187D01*
X109900Y-76902D01*
X110394Y-76047D01*
X110650Y-75094D01*
Y-74106D01*
X110394Y-73153D01*
X109900Y-72298D01*
X109202Y-71600D01*
X108347Y-71106D01*
X107394Y-70850D01*
X106406D01*
X105453Y-71106D01*
X104598Y-71600D01*
X103900Y-72298D01*
X103406Y-73153D01*
X103150Y-74106D01*
Y-75094D01*
X103406Y-76047D01*
X103900Y-76902D01*
X104184Y-77187D01*
X104230Y-77302D01*
X104495Y-77575D01*
X104720Y-77829D01*
X104914Y-78076D01*
X105078Y-78315D01*
X105214Y-78545D01*
X105321Y-78765D01*
X105402Y-78974D01*
X105457Y-79174D01*
X105489Y-79365D01*
X105502Y-79586D01*
X105524Y-79631D01*
Y-89869D01*
X105502Y-89914D01*
X105489Y-90135D01*
X105457Y-90326D01*
X105402Y-90526D01*
X105321Y-90735D01*
X105214Y-90955D01*
X105078Y-91185D01*
X104919Y-91416D01*
X104489Y-91932D01*
X104230Y-92198D01*
X104184Y-92313D01*
X103900Y-92598D01*
X103406Y-93453D01*
X103150Y-94406D01*
Y-95394D01*
X103406Y-96347D01*
X103900Y-97202D01*
X104184Y-97487D01*
X104230Y-97602D01*
X104495Y-97875D01*
X104720Y-98129D01*
X104914Y-98376D01*
X105078Y-98615D01*
X105214Y-98845D01*
X105321Y-99065D01*
X105402Y-99274D01*
X105457Y-99474D01*
X105489Y-99665D01*
X105502Y-99886D01*
X105524Y-99931D01*
Y-110169D01*
X105502Y-110214D01*
X105489Y-110435D01*
X105457Y-110626D01*
X105402Y-110826D01*
X105321Y-111035D01*
X105214Y-111255D01*
X105078Y-111485D01*
X104919Y-111716D01*
X104489Y-112232D01*
X104230Y-112497D01*
X104184Y-112613D01*
X103900Y-112898D01*
X103406Y-113753D01*
X103150Y-114706D01*
Y-115694D01*
X103406Y-116647D01*
X103900Y-117502D01*
X104598Y-118200D01*
X105157Y-118524D01*
X105023Y-119024D01*
X98777D01*
X98643Y-118524D01*
X99202Y-118200D01*
X99900Y-117502D01*
X100394Y-116647D01*
X100650Y-115694D01*
Y-114706D01*
X100394Y-113753D01*
X99900Y-112898D01*
X99202Y-112200D01*
X98347Y-111706D01*
X97394Y-111450D01*
X96406D01*
X95453Y-111706D01*
X94598Y-112200D01*
X93900Y-112898D01*
X93406Y-113753D01*
X93150Y-114706D01*
Y-115694D01*
X93406Y-116647D01*
X93900Y-117502D01*
X94598Y-118200D01*
X95157Y-118524D01*
X95023Y-119024D01*
X67000D01*
Y-47122D01*
X80400D01*
X80829Y-47036D01*
X81193Y-46793D01*
X81436Y-46429D01*
X81522Y-46000D01*
Y12500D01*
X81436Y12929D01*
X81193Y13293D01*
X80829Y13536D01*
X80400Y13622D01*
Y21824D01*
X125400D01*
Y13705D01*
X150700D01*
Y21824D01*
X166324D01*
X166324Y-119024D01*
D02*
G37*
G36*
X108828Y-77133D02*
X108363Y-77691D01*
X108174Y-77966D01*
X108014Y-78237D01*
X107883Y-78505D01*
X107781Y-78771D01*
X107708Y-79033D01*
X107665Y-79293D01*
X107650Y-79549D01*
X106150D01*
X106135Y-79293D01*
X106092Y-79033D01*
X106019Y-78771D01*
X105917Y-78505D01*
X105786Y-78237D01*
X105626Y-77966D01*
X105437Y-77691D01*
X105219Y-77413D01*
X104972Y-77133D01*
X104695Y-76849D01*
X109105D01*
X108828Y-77133D01*
D02*
G37*
G36*
X107665Y-90207D02*
X107708Y-90467D01*
X107781Y-90729D01*
X107883Y-90995D01*
X108014Y-91263D01*
X108174Y-91534D01*
X108363Y-91809D01*
X108581Y-92086D01*
X108828Y-92367D01*
X109105Y-92651D01*
X104695D01*
X104972Y-92367D01*
X105437Y-91809D01*
X105626Y-91534D01*
X105786Y-91263D01*
X105917Y-90995D01*
X106019Y-90729D01*
X106092Y-90467D01*
X106135Y-90207D01*
X106150Y-89951D01*
X107650D01*
X107665Y-90207D01*
D02*
G37*
G36*
X108828Y-97433D02*
X108363Y-97991D01*
X108174Y-98266D01*
X108014Y-98537D01*
X107883Y-98805D01*
X107781Y-99071D01*
X107708Y-99333D01*
X107665Y-99593D01*
X107650Y-99849D01*
X106150D01*
X106135Y-99593D01*
X106092Y-99333D01*
X106019Y-99071D01*
X105917Y-98805D01*
X105786Y-98537D01*
X105626Y-98266D01*
X105437Y-97991D01*
X105219Y-97714D01*
X104972Y-97433D01*
X104695Y-97149D01*
X109105D01*
X108828Y-97433D01*
D02*
G37*
G36*
X107665Y-110508D02*
X107708Y-110767D01*
X107781Y-111029D01*
X107883Y-111294D01*
X108014Y-111563D01*
X108174Y-111834D01*
X108363Y-112109D01*
X108581Y-112387D01*
X108828Y-112667D01*
X109105Y-112951D01*
X104695D01*
X104972Y-112667D01*
X105437Y-112109D01*
X105626Y-111834D01*
X105786Y-111563D01*
X105917Y-111294D01*
X106019Y-111029D01*
X106092Y-110767D01*
X106135Y-110508D01*
X106150Y-110251D01*
X107650D01*
X107665Y-110508D01*
D02*
G37*
%LPC*%
G36*
X158198Y18294D02*
X158048D01*
Y13857D01*
X162485D01*
Y14007D01*
X162149Y15263D01*
X161499Y16389D01*
X160579Y17308D01*
X159454Y17958D01*
X158198Y18294D01*
D02*
G37*
G36*
X157048D02*
X156898D01*
X155642Y17958D01*
X154517Y17308D01*
X153597Y16389D01*
X152947Y15263D01*
X152611Y14007D01*
Y13857D01*
X157048D01*
Y18294D01*
D02*
G37*
G36*
X162485Y12857D02*
X158048D01*
Y8420D01*
X158198D01*
X159454Y8757D01*
X160579Y9407D01*
X161499Y10326D01*
X162149Y11452D01*
X162485Y12707D01*
Y12857D01*
D02*
G37*
G36*
X157048D02*
X152611D01*
Y12707D01*
X152947Y11452D01*
X153597Y10326D01*
X154517Y9407D01*
X155642Y8757D01*
X156898Y8420D01*
X157048D01*
Y12857D01*
D02*
G37*
G36*
X124800Y12318D02*
X115500D01*
X115149Y12248D01*
X114851Y12049D01*
X113730Y10928D01*
X113663Y10904D01*
X113615Y10861D01*
X113588Y10841D01*
X113553Y10821D01*
X113510Y10802D01*
X113457Y10782D01*
X113392Y10765D01*
X113316Y10750D01*
X113228Y10739D01*
X113129Y10732D01*
X113002Y10730D01*
X112888Y10681D01*
X112646D01*
X111991Y10410D01*
X111490Y9909D01*
X111219Y9254D01*
Y8546D01*
X111490Y7891D01*
X111991Y7390D01*
X112646Y7119D01*
X113354D01*
X114009Y7390D01*
X114273Y7655D01*
X114600Y7840D01*
X114927Y7655D01*
X115191Y7390D01*
X115846Y7119D01*
X116554D01*
X117209Y7390D01*
X117380Y7561D01*
X117496Y7607D01*
X117587Y7696D01*
X117662Y7761D01*
X117732Y7815D01*
X117796Y7859D01*
X117854Y7892D01*
X117905Y7916D01*
X117950Y7933D01*
X117988Y7943D01*
X118021Y7948D01*
X118086Y7952D01*
X118150Y7982D01*
X125020D01*
X128382Y4620D01*
Y-18720D01*
X126557Y-20546D01*
X126149Y-20527D01*
X125979Y-20458D01*
X125910Y-20291D01*
X125409Y-19790D01*
X124754Y-19519D01*
X124046D01*
X123391Y-19790D01*
X122890Y-20291D01*
X122619Y-20946D01*
Y-21654D01*
X122890Y-22309D01*
X123059Y-22478D01*
X123103Y-22592D01*
X123168Y-22660D01*
X123211Y-22711D01*
X123246Y-22761D01*
X123274Y-22809D01*
X123298Y-22857D01*
X123316Y-22905D01*
X123331Y-22954D01*
X123341Y-23006D01*
X123348Y-23061D01*
X123351Y-23145D01*
X123380Y-23209D01*
Y-24393D01*
X121479Y-26294D01*
X121258Y-26625D01*
X121180Y-27016D01*
Y-78482D01*
X121151Y-78549D01*
X121147Y-78683D01*
X121141Y-78754D01*
X118254D01*
Y-86646D01*
X126078D01*
X126146Y-86646D01*
X126578Y-86811D01*
Y-91861D01*
X126078Y-91927D01*
X125877Y-91177D01*
X125358Y-90277D01*
X124623Y-89542D01*
X123723Y-89022D01*
X122720Y-88753D01*
X121680D01*
X120677Y-89022D01*
X119777Y-89542D01*
X119042Y-90277D01*
X118523Y-91177D01*
X118254Y-92180D01*
Y-93220D01*
X118523Y-94223D01*
X119042Y-95123D01*
X119777Y-95858D01*
X120677Y-96377D01*
X121680Y-96646D01*
X122720D01*
X123723Y-96377D01*
X124623Y-95858D01*
X125358Y-95123D01*
X125877Y-94223D01*
X126078Y-93473D01*
X126578Y-93539D01*
Y-101861D01*
X126078Y-101927D01*
X125877Y-101177D01*
X125358Y-100277D01*
X124623Y-99542D01*
X123723Y-99023D01*
X122720Y-98753D01*
X121680D01*
X120677Y-99023D01*
X119777Y-99542D01*
X119042Y-100277D01*
X118523Y-101177D01*
X118254Y-102180D01*
Y-103220D01*
X118523Y-104223D01*
X119042Y-105123D01*
X119777Y-105858D01*
X120677Y-106377D01*
X121680Y-106647D01*
X122720D01*
X123723Y-106377D01*
X124623Y-105858D01*
X125358Y-105123D01*
X125877Y-104223D01*
X126078Y-103473D01*
X126578Y-103539D01*
Y-105800D01*
X126578Y-105800D01*
X126664Y-106229D01*
X126907Y-106593D01*
X128665Y-108351D01*
X128665Y-108351D01*
X129029Y-108594D01*
X129458Y-108680D01*
X129458Y-108679D01*
X133049D01*
X133113Y-108707D01*
X133514Y-108715D01*
Y-109930D01*
X139832D01*
Y-109702D01*
X139856Y-109642D01*
X140091Y-109377D01*
X140518Y-109345D01*
X140885Y-109732D01*
Y-110491D01*
X141201Y-111254D01*
X141764Y-111817D01*
X141757Y-111927D01*
X141634Y-112317D01*
X141375D01*
Y-115208D01*
X145775D01*
X145725Y-114830D01*
X145386Y-114012D01*
X144847Y-113310D01*
X144145Y-112771D01*
X143669Y-112574D01*
Y-112033D01*
X144138Y-111838D01*
X144722Y-111254D01*
X145038Y-110491D01*
Y-109665D01*
X144722Y-108902D01*
X144604Y-108783D01*
X144795Y-108322D01*
X146335D01*
X146893Y-108879D01*
X146917Y-108942D01*
X146987Y-109016D01*
X147035Y-109073D01*
X147074Y-109126D01*
X147105Y-109175D01*
X147128Y-109218D01*
X147145Y-109257D01*
X147156Y-109292D01*
X147164Y-109324D01*
X147168Y-109353D01*
X147170Y-109413D01*
X147219Y-109519D01*
Y-109754D01*
X147490Y-110409D01*
X147991Y-110910D01*
X148646Y-111181D01*
X149354D01*
X150009Y-110910D01*
X150510Y-110409D01*
X150781Y-109754D01*
Y-109046D01*
X150510Y-108391D01*
X150344Y-108225D01*
X150303Y-108115D01*
X150262Y-108071D01*
X150244Y-108047D01*
X150227Y-108020D01*
X150211Y-107987D01*
X150195Y-107948D01*
X150181Y-107900D01*
X150168Y-107844D01*
X150158Y-107779D01*
X150152Y-107705D01*
X150149Y-107604D01*
X150122Y-107542D01*
Y-91500D01*
X150036Y-91071D01*
X149793Y-90707D01*
X149793Y-90707D01*
X148693Y-89607D01*
X148329Y-89364D01*
X147900Y-89278D01*
X147900Y-89278D01*
X144649D01*
X144442Y-88778D01*
X144722Y-88498D01*
X145038Y-87735D01*
Y-86909D01*
X144722Y-86146D01*
X144138Y-85562D01*
X143669Y-85367D01*
Y-84826D01*
X144145Y-84629D01*
X144847Y-84090D01*
X145386Y-83388D01*
X145725Y-82570D01*
X145775Y-82192D01*
X141375D01*
Y-85083D01*
X141634D01*
X141757Y-85473D01*
X141764Y-85583D01*
X141201Y-86146D01*
X140885Y-86909D01*
Y-87686D01*
X140851Y-87775D01*
X140691Y-87964D01*
X140507Y-88129D01*
X139831D01*
Y-87469D01*
X133513D01*
Y-91033D01*
X133514D01*
Y-92589D01*
X133510D01*
Y-94361D01*
X133010Y-94568D01*
X132420Y-93978D01*
Y-79422D01*
X133822Y-78020D01*
X138073D01*
X138173Y-78520D01*
X137604Y-78755D01*
X136902Y-79294D01*
X136363Y-79996D01*
X136024Y-80814D01*
X135974Y-81192D01*
X140875D01*
X145775D01*
X145725Y-80814D01*
X145386Y-79996D01*
X144847Y-79294D01*
X144145Y-78755D01*
X143576Y-78520D01*
X143676Y-78020D01*
X144100D01*
X144490Y-77942D01*
X144821Y-77721D01*
X147821Y-74721D01*
X148042Y-74390D01*
X148120Y-74000D01*
Y-44300D01*
X148042Y-43910D01*
X147821Y-43579D01*
X145871Y-41629D01*
X145846Y-41563D01*
X145789Y-41501D01*
X145755Y-41458D01*
X145726Y-41414D01*
X145701Y-41369D01*
X145680Y-41322D01*
X145663Y-41271D01*
X145649Y-41216D01*
X145639Y-41157D01*
X145633Y-41091D01*
X145630Y-40996D01*
X145581Y-40885D01*
Y-40646D01*
X145310Y-39991D01*
X144809Y-39490D01*
X144154Y-39219D01*
X143446D01*
X142791Y-39490D01*
X142418Y-39863D01*
X141918Y-39683D01*
Y-24100D01*
X141848Y-23749D01*
X141649Y-23451D01*
X140749Y-22551D01*
X140451Y-22352D01*
X140100Y-22282D01*
X138180D01*
X137818Y-21920D01*
Y-19550D01*
X137848Y-19486D01*
X137852Y-19421D01*
X137857Y-19388D01*
X137867Y-19350D01*
X137884Y-19305D01*
X137908Y-19254D01*
X137941Y-19196D01*
X137985Y-19132D01*
X138039Y-19062D01*
X138104Y-18987D01*
X138193Y-18896D01*
X138239Y-18780D01*
X138410Y-18609D01*
X138681Y-17954D01*
Y-17246D01*
X138410Y-16591D01*
X137909Y-16090D01*
X137254Y-15819D01*
X136546D01*
X135891Y-16090D01*
X135390Y-16591D01*
X135119Y-17246D01*
Y-17954D01*
X135390Y-18609D01*
X135561Y-18780D01*
X135607Y-18896D01*
X135696Y-18987D01*
X135761Y-19062D01*
X135815Y-19132D01*
X135859Y-19196D01*
X135892Y-19254D01*
X135916Y-19305D01*
X135933Y-19350D01*
X135943Y-19388D01*
X135948Y-19421D01*
X135951Y-19486D01*
X135982Y-19550D01*
Y-22300D01*
X136052Y-22651D01*
X136251Y-22949D01*
X137151Y-23849D01*
X137449Y-24048D01*
X137800Y-24118D01*
X139720D01*
X140082Y-24480D01*
Y-28556D01*
X139582Y-28763D01*
X139309Y-28490D01*
X138654Y-28219D01*
X137946D01*
X137291Y-28490D01*
X137120Y-28661D01*
X137004Y-28707D01*
X136913Y-28795D01*
X136838Y-28861D01*
X136768Y-28915D01*
X136704Y-28959D01*
X136646Y-28992D01*
X136595Y-29016D01*
X136550Y-29033D01*
X136512Y-29043D01*
X136479Y-29048D01*
X136414Y-29052D01*
X136350Y-29082D01*
X127080D01*
X126528Y-28530D01*
X126504Y-28463D01*
X126461Y-28415D01*
X126441Y-28388D01*
X126421Y-28353D01*
X126401Y-28310D01*
X126382Y-28257D01*
X126365Y-28192D01*
X126350Y-28116D01*
X126339Y-28028D01*
X126332Y-27929D01*
X126330Y-27802D01*
X126281Y-27688D01*
Y-27446D01*
X126010Y-26791D01*
X125509Y-26290D01*
X125202Y-26163D01*
X125084Y-25573D01*
X125121Y-25536D01*
X125237Y-25363D01*
X125725Y-25247D01*
X125841Y-25260D01*
X126091Y-25510D01*
X126746Y-25781D01*
X127454D01*
X128109Y-25510D01*
X128610Y-25009D01*
X128881Y-24354D01*
Y-23646D01*
X128610Y-22991D01*
X128439Y-22820D01*
X128393Y-22704D01*
X128304Y-22613D01*
X128239Y-22538D01*
X128185Y-22468D01*
X128141Y-22404D01*
X128108Y-22346D01*
X128084Y-22295D01*
X128067Y-22250D01*
X128057Y-22212D01*
X128052Y-22179D01*
X128049Y-22114D01*
X128018Y-22050D01*
Y-21931D01*
X128219Y-21781D01*
X128582Y-21907D01*
X128743Y-22013D01*
X128990Y-22609D01*
X129491Y-23110D01*
X130146Y-23381D01*
X130854D01*
X131509Y-23110D01*
X132010Y-22609D01*
X132281Y-21954D01*
Y-21246D01*
X132010Y-20591D01*
X131839Y-20420D01*
X131793Y-20304D01*
X131704Y-20213D01*
X131639Y-20138D01*
X131585Y-20068D01*
X131541Y-20004D01*
X131508Y-19946D01*
X131484Y-19895D01*
X131467Y-19850D01*
X131457Y-19812D01*
X131452Y-19779D01*
X131448Y-19714D01*
X131418Y-19650D01*
Y5700D01*
X131348Y6051D01*
X131149Y6349D01*
X125449Y12049D01*
X125151Y12248D01*
X124800Y12318D01*
D02*
G37*
G36*
X105754Y-21919D02*
X105046D01*
X104391Y-22190D01*
X103890Y-22691D01*
X103619Y-23346D01*
Y-24054D01*
X103890Y-24709D01*
X104277Y-25096D01*
X104347Y-25400D01*
X104277Y-25704D01*
X103890Y-26091D01*
X103619Y-26746D01*
Y-27454D01*
X103890Y-28109D01*
X104391Y-28610D01*
X105046Y-28881D01*
X105754D01*
X106409Y-28610D01*
X106578Y-28441D01*
X106692Y-28397D01*
X106760Y-28332D01*
X106811Y-28289D01*
X106861Y-28255D01*
X106909Y-28226D01*
X106957Y-28202D01*
X107005Y-28184D01*
X107054Y-28169D01*
X107106Y-28159D01*
X107161Y-28152D01*
X107245Y-28149D01*
X107309Y-28120D01*
X107678D01*
X110229Y-30671D01*
X110254Y-30737D01*
X110311Y-30799D01*
X110345Y-30843D01*
X110374Y-30886D01*
X110399Y-30931D01*
X110420Y-30979D01*
X110437Y-31029D01*
X110451Y-31084D01*
X110461Y-31143D01*
X110468Y-31209D01*
X110470Y-31304D01*
X110519Y-31415D01*
Y-31654D01*
X110790Y-32309D01*
X111291Y-32810D01*
X111946Y-33081D01*
X112654D01*
X113309Y-32810D01*
X113810Y-32309D01*
X114081Y-31654D01*
Y-30946D01*
X113810Y-30291D01*
X113309Y-29790D01*
X112654Y-29519D01*
X112415D01*
X112304Y-29470D01*
X112209Y-29467D01*
X112143Y-29461D01*
X112083Y-29451D01*
X112029Y-29437D01*
X111978Y-29420D01*
X111931Y-29399D01*
X111886Y-29374D01*
X111843Y-29345D01*
X111799Y-29311D01*
X111737Y-29254D01*
X111671Y-29229D01*
X111281Y-28839D01*
X111564Y-28415D01*
X111965Y-28581D01*
X112673D01*
X113328Y-28310D01*
X113829Y-27809D01*
X114100Y-27154D01*
Y-26446D01*
X113829Y-25791D01*
X113328Y-25290D01*
X112673Y-25019D01*
X112434D01*
X112323Y-24970D01*
X112228Y-24968D01*
X112162Y-24961D01*
X112102Y-24951D01*
X112048Y-24937D01*
X111997Y-24920D01*
X111950Y-24899D01*
X111905Y-24874D01*
X111861Y-24845D01*
X111818Y-24811D01*
X111756Y-24754D01*
X111690Y-24729D01*
X109940Y-22979D01*
X109609Y-22758D01*
X109219Y-22680D01*
X107309D01*
X107245Y-22651D01*
X107161Y-22648D01*
X107106Y-22641D01*
X107054Y-22631D01*
X107005Y-22616D01*
X106957Y-22598D01*
X106909Y-22574D01*
X106861Y-22546D01*
X106811Y-22511D01*
X106760Y-22468D01*
X106692Y-22403D01*
X106578Y-22359D01*
X106409Y-22190D01*
X105754Y-21919D01*
D02*
G37*
G36*
X158145Y-42735D02*
X156951D01*
X155797Y-43045D01*
X154762Y-43642D01*
X153918Y-44487D01*
X153320Y-45521D01*
X153011Y-46675D01*
Y-47870D01*
X153320Y-49024D01*
X153918Y-50058D01*
X154762Y-50903D01*
X155797Y-51500D01*
X156951Y-51810D01*
X158145D01*
X159299Y-51500D01*
X160334Y-50903D01*
X161179Y-50058D01*
X161776Y-49024D01*
X162085Y-47870D01*
Y-46675D01*
X161776Y-45521D01*
X161179Y-44487D01*
X160334Y-43642D01*
X159299Y-43045D01*
X158145Y-42735D01*
D02*
G37*
G36*
X112673Y-55319D02*
X111965D01*
X111310Y-55590D01*
X110809Y-56091D01*
X110538Y-56746D01*
Y-57454D01*
X110809Y-58109D01*
X111310Y-58610D01*
X111965Y-58881D01*
X112673D01*
X113328Y-58610D01*
X113453Y-58484D01*
X113555Y-58450D01*
X113628Y-58386D01*
X113684Y-58343D01*
X113738Y-58307D01*
X113791Y-58277D01*
X113843Y-58253D01*
X113895Y-58234D01*
X113948Y-58219D01*
X114003Y-58209D01*
X114059Y-58202D01*
X114144Y-58199D01*
X114208Y-58170D01*
X116772D01*
X116834Y-58199D01*
X116836Y-58198D01*
X116838Y-58199D01*
X116922Y-58202D01*
X116975Y-58209D01*
X117024Y-58219D01*
X117069Y-58233D01*
X117113Y-58251D01*
X117157Y-58273D01*
X117200Y-58301D01*
X117245Y-58335D01*
X117292Y-58376D01*
X117356Y-58442D01*
X117475Y-58494D01*
X117691Y-58710D01*
X118346Y-58981D01*
X119054D01*
X119709Y-58710D01*
X120210Y-58209D01*
X120481Y-57554D01*
Y-56846D01*
X120210Y-56191D01*
X119709Y-55690D01*
X119054Y-55419D01*
X118346D01*
X117691Y-55690D01*
X117565Y-55816D01*
X117464Y-55850D01*
X117391Y-55914D01*
X117335Y-55957D01*
X117281Y-55993D01*
X117228Y-56023D01*
X117176Y-56047D01*
X117123Y-56066D01*
X117071Y-56081D01*
X117016Y-56091D01*
X116960Y-56098D01*
X116875Y-56101D01*
X116811Y-56130D01*
X114247D01*
X114185Y-56101D01*
X114183Y-56102D01*
X114181Y-56101D01*
X114097Y-56098D01*
X114044Y-56091D01*
X113995Y-56081D01*
X113950Y-56067D01*
X113906Y-56049D01*
X113862Y-56027D01*
X113819Y-55999D01*
X113774Y-55965D01*
X113727Y-55924D01*
X113663Y-55858D01*
X113544Y-55806D01*
X113328Y-55590D01*
X112673Y-55319D01*
D02*
G37*
G36*
X97394Y-70850D02*
X96406D01*
X95453Y-71106D01*
X94598Y-71600D01*
X93900Y-72298D01*
X93406Y-73153D01*
X93150Y-74106D01*
Y-75094D01*
X93406Y-76047D01*
X93900Y-76902D01*
X94598Y-77600D01*
X95453Y-78094D01*
X96406Y-78350D01*
X97394D01*
X98347Y-78094D01*
X99202Y-77600D01*
X99900Y-76902D01*
X100394Y-76047D01*
X100650Y-75094D01*
Y-74106D01*
X100394Y-73153D01*
X99900Y-72298D01*
X99202Y-71600D01*
X98347Y-71106D01*
X97394Y-70850D01*
D02*
G37*
G36*
X158513Y-78301D02*
X157832D01*
Y-81192D01*
X161838D01*
X161788Y-80814D01*
X161450Y-79996D01*
X160911Y-79294D01*
X160208Y-78755D01*
X159390Y-78416D01*
X158513Y-78301D01*
D02*
G37*
G36*
X156832D02*
X156150D01*
X155273Y-78416D01*
X154455Y-78755D01*
X153753Y-79294D01*
X153214Y-79996D01*
X152875Y-80814D01*
X152825Y-81192D01*
X156832D01*
Y-78301D01*
D02*
G37*
G36*
X161838Y-82192D02*
X157832D01*
Y-85083D01*
X158513D01*
X159390Y-84968D01*
X160208Y-84629D01*
X160911Y-84090D01*
X161450Y-83388D01*
X161788Y-82570D01*
X161838Y-82192D01*
D02*
G37*
G36*
X156832D02*
X152825D01*
X152875Y-82570D01*
X153214Y-83388D01*
X153753Y-84090D01*
X154455Y-84629D01*
X155273Y-84968D01*
X156150Y-85083D01*
X156832D01*
Y-82192D01*
D02*
G37*
G36*
X140375D02*
X135974D01*
X136024Y-82570D01*
X136363Y-83388D01*
X136902Y-84090D01*
X137604Y-84629D01*
X138422Y-84968D01*
X139300Y-85083D01*
X140375D01*
Y-82192D01*
D02*
G37*
G36*
X97394Y-91150D02*
X96406D01*
X95453Y-91406D01*
X94598Y-91900D01*
X93900Y-92598D01*
X93406Y-93453D01*
X93150Y-94406D01*
Y-95394D01*
X93406Y-96347D01*
X93900Y-97202D01*
X94598Y-97900D01*
X95453Y-98394D01*
X96406Y-98650D01*
X97394D01*
X98347Y-98394D01*
X99202Y-97900D01*
X99900Y-97202D01*
X100394Y-96347D01*
X100650Y-95394D01*
Y-94406D01*
X100394Y-93453D01*
X99900Y-92598D01*
X99202Y-91900D01*
X98347Y-91406D01*
X97394Y-91150D01*
D02*
G37*
G36*
X122772Y-108353D02*
X122700D01*
Y-112200D01*
X126547D01*
Y-112128D01*
X126250Y-111022D01*
X125678Y-110031D01*
X124869Y-109222D01*
X123878Y-108650D01*
X122772Y-108353D01*
D02*
G37*
G36*
X121700D02*
X121628D01*
X120522Y-108650D01*
X119531Y-109222D01*
X118722Y-110031D01*
X118150Y-111022D01*
X117853Y-112128D01*
Y-112200D01*
X121700D01*
Y-108353D01*
D02*
G37*
G36*
X158513Y-112317D02*
X157832D01*
Y-115208D01*
X161838D01*
X161788Y-114830D01*
X161450Y-114012D01*
X160911Y-113310D01*
X160208Y-112771D01*
X159390Y-112432D01*
X158513Y-112317D01*
D02*
G37*
G36*
X156832D02*
X156150D01*
X155273Y-112432D01*
X154455Y-112771D01*
X153753Y-113310D01*
X153214Y-114012D01*
X152875Y-114830D01*
X152825Y-115208D01*
X156832D01*
Y-112317D01*
D02*
G37*
G36*
X140375D02*
X139300D01*
X138422Y-112432D01*
X137604Y-112771D01*
X136902Y-113310D01*
X136363Y-114012D01*
X136024Y-114830D01*
X135974Y-115208D01*
X140375D01*
Y-112317D01*
D02*
G37*
G36*
X126547Y-113200D02*
X122700D01*
Y-117046D01*
X122772D01*
X123878Y-116750D01*
X124869Y-116178D01*
X125678Y-115369D01*
X126250Y-114378D01*
X126547Y-113272D01*
Y-113200D01*
D02*
G37*
G36*
X121700D02*
X117853D01*
Y-113272D01*
X118150Y-114378D01*
X118722Y-115369D01*
X119531Y-116178D01*
X120522Y-116750D01*
X121628Y-117046D01*
X121700D01*
Y-113200D01*
D02*
G37*
%LPD*%
G36*
X114521Y9997D02*
X114455Y9923D01*
X114396Y9842D01*
X114345Y9753D01*
X114300Y9656D01*
X114262Y9552D01*
X114232Y9439D01*
X114208Y9319D01*
X114192Y9191D01*
X114183Y9055D01*
X114181Y8912D01*
X113012Y10081D01*
X113155Y10083D01*
X113291Y10092D01*
X113419Y10108D01*
X113539Y10132D01*
X113652Y10162D01*
X113756Y10200D01*
X113853Y10244D01*
X113942Y10296D01*
X114023Y10355D01*
X114097Y10421D01*
X114521Y9997D01*
D02*
G37*
G36*
X117147Y9627D02*
X117249Y9537D01*
X117351Y9458D01*
X117453Y9390D01*
X117553Y9332D01*
X117654Y9284D01*
X117754Y9247D01*
X117853Y9221D01*
X117953Y9205D01*
X118051Y9200D01*
Y8600D01*
X117953Y8595D01*
X117853Y8579D01*
X117754Y8553D01*
X117654Y8516D01*
X117553Y8468D01*
X117453Y8410D01*
X117351Y8342D01*
X117249Y8263D01*
X117147Y8173D01*
X117043Y8073D01*
Y9727D01*
X117147Y9627D01*
D02*
G37*
G36*
X137627Y-18546D02*
X137537Y-18649D01*
X137458Y-18751D01*
X137390Y-18853D01*
X137332Y-18954D01*
X137284Y-19054D01*
X137247Y-19154D01*
X137221Y-19253D01*
X137205Y-19353D01*
X137200Y-19451D01*
X136600D01*
X136595Y-19353D01*
X136579Y-19253D01*
X136553Y-19154D01*
X136516Y-19054D01*
X136468Y-18954D01*
X136410Y-18853D01*
X136342Y-18751D01*
X136263Y-18649D01*
X136173Y-18546D01*
X136073Y-18443D01*
X137727D01*
X137627Y-18546D01*
D02*
G37*
G36*
X130805Y-19848D02*
X130821Y-19947D01*
X130847Y-20046D01*
X130884Y-20146D01*
X130932Y-20246D01*
X130990Y-20347D01*
X131058Y-20449D01*
X131137Y-20551D01*
X131227Y-20653D01*
X131327Y-20756D01*
X129673D01*
X129773Y-20653D01*
X129863Y-20551D01*
X129942Y-20449D01*
X130010Y-20347D01*
X130068Y-20246D01*
X130116Y-20146D01*
X130153Y-20046D01*
X130179Y-19947D01*
X130195Y-19848D01*
X130200Y-19749D01*
X130800D01*
X130805Y-19848D01*
D02*
G37*
G36*
X125146Y-22229D02*
X125073Y-22316D01*
X125009Y-22407D01*
X124954Y-22501D01*
X124907Y-22597D01*
X124868Y-22696D01*
X124838Y-22798D01*
X124817Y-22902D01*
X124804Y-23010D01*
X124800Y-23120D01*
X124000D01*
X123996Y-23010D01*
X123983Y-22902D01*
X123962Y-22798D01*
X123932Y-22696D01*
X123893Y-22597D01*
X123846Y-22501D01*
X123791Y-22407D01*
X123727Y-22316D01*
X123654Y-22229D01*
X123573Y-22143D01*
X125227D01*
X125146Y-22229D01*
D02*
G37*
G36*
X127405Y-22248D02*
X127421Y-22346D01*
X127447Y-22446D01*
X127484Y-22546D01*
X127532Y-22647D01*
X127590Y-22748D01*
X127658Y-22849D01*
X127737Y-22951D01*
X127827Y-23054D01*
X127927Y-23156D01*
X126273D01*
X126373Y-23054D01*
X126463Y-22951D01*
X126542Y-22849D01*
X126610Y-22748D01*
X126668Y-22647D01*
X126716Y-22546D01*
X126753Y-22446D01*
X126779Y-22346D01*
X126795Y-22248D01*
X126800Y-22149D01*
X127400D01*
X127405Y-22248D01*
D02*
G37*
G36*
X125683Y-27955D02*
X125692Y-28091D01*
X125708Y-28219D01*
X125732Y-28339D01*
X125762Y-28452D01*
X125800Y-28556D01*
X125845Y-28653D01*
X125896Y-28742D01*
X125955Y-28823D01*
X126021Y-28897D01*
X125597Y-29321D01*
X125523Y-29255D01*
X125442Y-29196D01*
X125353Y-29144D01*
X125256Y-29100D01*
X125152Y-29062D01*
X125039Y-29032D01*
X124919Y-29008D01*
X124791Y-28992D01*
X124655Y-28983D01*
X124512Y-28981D01*
X125681Y-27812D01*
X125683Y-27955D01*
D02*
G37*
G36*
X137457Y-30827D02*
X137354Y-30727D01*
X137251Y-30637D01*
X137149Y-30558D01*
X137048Y-30490D01*
X136946Y-30432D01*
X136846Y-30384D01*
X136746Y-30347D01*
X136646Y-30321D01*
X136548Y-30305D01*
X136449Y-30300D01*
Y-29700D01*
X136548Y-29695D01*
X136646Y-29679D01*
X136746Y-29653D01*
X136846Y-29616D01*
X136946Y-29568D01*
X137048Y-29510D01*
X137149Y-29442D01*
X137251Y-29363D01*
X137354Y-29273D01*
X137457Y-29173D01*
Y-30827D01*
D02*
G37*
G36*
X144984Y-41129D02*
X144995Y-41243D01*
X145013Y-41352D01*
X145040Y-41457D01*
X145075Y-41559D01*
X145118Y-41656D01*
X145169Y-41749D01*
X145228Y-41838D01*
X145295Y-41923D01*
X145370Y-42004D01*
X144804Y-42570D01*
X144723Y-42495D01*
X144638Y-42428D01*
X144549Y-42369D01*
X144456Y-42318D01*
X144359Y-42275D01*
X144257Y-42240D01*
X144152Y-42213D01*
X144043Y-42195D01*
X143929Y-42184D01*
X143812Y-42181D01*
X144981Y-41012D01*
X144984Y-41129D01*
D02*
G37*
G36*
X144684Y-47529D02*
X144695Y-47643D01*
X144713Y-47752D01*
X144740Y-47857D01*
X144775Y-47959D01*
X144818Y-48056D01*
X144869Y-48149D01*
X144928Y-48238D01*
X144995Y-48323D01*
X145070Y-48404D01*
X144504Y-48970D01*
X144423Y-48895D01*
X144338Y-48828D01*
X144249Y-48769D01*
X144156Y-48718D01*
X144059Y-48675D01*
X143957Y-48640D01*
X143852Y-48614D01*
X143743Y-48595D01*
X143629Y-48584D01*
X143512Y-48581D01*
X144681Y-47412D01*
X144684Y-47529D01*
D02*
G37*
G36*
X136457Y-60827D02*
X136390Y-60765D01*
X136317Y-60709D01*
X136238Y-60660D01*
X136153Y-60618D01*
X136063Y-60582D01*
X135966Y-60552D01*
X135864Y-60529D01*
X135756Y-60513D01*
X135641Y-60503D01*
X135521Y-60500D01*
Y-59500D01*
X135641Y-59497D01*
X135756Y-59487D01*
X135864Y-59471D01*
X135966Y-59448D01*
X136063Y-59418D01*
X136153Y-59382D01*
X136238Y-59340D01*
X136317Y-59291D01*
X136390Y-59235D01*
X136457Y-59173D01*
Y-60827D01*
D02*
G37*
G36*
X124146Y-29581D02*
X124388D01*
X124503Y-29630D01*
X124629Y-29632D01*
X124728Y-29639D01*
X124816Y-29650D01*
X124892Y-29665D01*
X124957Y-29682D01*
X125010Y-29702D01*
X125053Y-29721D01*
X125088Y-29741D01*
X125115Y-29761D01*
X125163Y-29804D01*
X125230Y-29828D01*
X126051Y-30649D01*
X126349Y-30848D01*
X126700Y-30918D01*
X136350D01*
X136414Y-30948D01*
X136479Y-30952D01*
X136512Y-30957D01*
X136550Y-30967D01*
X136595Y-30984D01*
X136646Y-31008D01*
X136704Y-31041D01*
X136768Y-31085D01*
X136838Y-31139D01*
X136913Y-31204D01*
X137004Y-31293D01*
X137120Y-31339D01*
X137291Y-31510D01*
X137946Y-31781D01*
X138654D01*
X139309Y-31510D01*
X139582Y-31236D01*
X140082Y-31444D01*
Y-63620D01*
X139830Y-63872D01*
X139763Y-63896D01*
X139715Y-63939D01*
X139688Y-63959D01*
X139653Y-63979D01*
X139610Y-63999D01*
X139557Y-64018D01*
X139492Y-64035D01*
X139416Y-64050D01*
X139328Y-64061D01*
X139229Y-64068D01*
X139102Y-64070D01*
X138988Y-64119D01*
X138746D01*
X138091Y-64390D01*
X137590Y-64891D01*
X137319Y-65546D01*
Y-66254D01*
X137590Y-66909D01*
X138091Y-67410D01*
X138746Y-67681D01*
X139454D01*
X140109Y-67410D01*
X140610Y-66909D01*
X140881Y-66254D01*
Y-66012D01*
X140930Y-65898D01*
X140932Y-65771D01*
X140939Y-65672D01*
X140950Y-65584D01*
X140965Y-65508D01*
X140982Y-65443D01*
X141001Y-65390D01*
X141021Y-65347D01*
X141041Y-65312D01*
X141061Y-65285D01*
X141104Y-65237D01*
X141128Y-65170D01*
X141649Y-64649D01*
X141848Y-64351D01*
X141918Y-64000D01*
Y-49044D01*
X142418Y-48836D01*
X142491Y-48910D01*
X143146Y-49181D01*
X143385D01*
X143496Y-49230D01*
X143590Y-49233D01*
X143657Y-49239D01*
X143717Y-49249D01*
X143771Y-49263D01*
X143822Y-49280D01*
X143869Y-49301D01*
X143914Y-49326D01*
X143957Y-49355D01*
X143980Y-49373D01*
Y-72678D01*
X142378Y-74280D01*
X132100D01*
X131710Y-74358D01*
X131379Y-74579D01*
X129283Y-76675D01*
X128822Y-76483D01*
Y-62665D01*
X130365Y-61122D01*
X135442D01*
X135504Y-61149D01*
X135605Y-61152D01*
X135679Y-61158D01*
X135744Y-61168D01*
X135800Y-61181D01*
X135848Y-61195D01*
X135887Y-61211D01*
X135920Y-61227D01*
X135948Y-61244D01*
X135971Y-61262D01*
X136015Y-61303D01*
X136125Y-61344D01*
X136291Y-61510D01*
X136946Y-61781D01*
X137654D01*
X138309Y-61510D01*
X138810Y-61009D01*
X139081Y-60354D01*
Y-59646D01*
X138810Y-58991D01*
X138309Y-58490D01*
X137654Y-58219D01*
X136946D01*
X136291Y-58490D01*
X136125Y-58656D01*
X136015Y-58697D01*
X135971Y-58738D01*
X135948Y-58756D01*
X135920Y-58773D01*
X135887Y-58789D01*
X135848Y-58805D01*
X135800Y-58819D01*
X135744Y-58832D01*
X135679Y-58842D01*
X135605Y-58848D01*
X135504Y-58851D01*
X135442Y-58878D01*
X129900D01*
X129900Y-58878D01*
X129471Y-58964D01*
X129107Y-59207D01*
X126907Y-61407D01*
X126664Y-61771D01*
X126578Y-62200D01*
X126578Y-62200D01*
Y-78589D01*
X126146Y-78754D01*
X126078Y-78754D01*
X123259D01*
X123253Y-78683D01*
X123249Y-78549D01*
X123220Y-78482D01*
Y-29692D01*
X123720Y-29405D01*
X124146Y-29581D01*
D02*
G37*
G36*
X140621Y-64803D02*
X140555Y-64877D01*
X140496Y-64958D01*
X140445Y-65047D01*
X140400Y-65144D01*
X140362Y-65248D01*
X140332Y-65361D01*
X140308Y-65481D01*
X140292Y-65609D01*
X140283Y-65745D01*
X140281Y-65888D01*
X139112Y-64719D01*
X139255Y-64717D01*
X139391Y-64708D01*
X139519Y-64692D01*
X139639Y-64668D01*
X139752Y-64638D01*
X139856Y-64600D01*
X139953Y-64556D01*
X140042Y-64504D01*
X140123Y-64445D01*
X140197Y-64379D01*
X140621Y-64803D01*
D02*
G37*
G36*
X122604Y-78720D02*
X122616Y-78858D01*
X122636Y-78980D01*
X122664Y-79085D01*
X122700Y-79175D01*
X122744Y-79248D01*
X122796Y-79304D01*
X122856Y-79345D01*
X122924Y-79369D01*
X123000Y-79378D01*
X121400D01*
X121476Y-79369D01*
X121544Y-79345D01*
X121604Y-79304D01*
X121656Y-79248D01*
X121700Y-79175D01*
X121736Y-79085D01*
X121764Y-78980D01*
X121784Y-78858D01*
X121796Y-78720D01*
X121800Y-78566D01*
X122600D01*
X122604Y-78720D01*
D02*
G37*
G36*
X139227Y-91265D02*
X139251Y-91296D01*
X139291Y-91322D01*
X139346Y-91346D01*
X139417Y-91365D01*
X139504Y-91381D01*
X139607Y-91394D01*
X139860Y-91408D01*
X140010Y-91410D01*
Y-92210D01*
X139860Y-92212D01*
X139504Y-92239D01*
X139417Y-92255D01*
X139346Y-92274D01*
X139291Y-92298D01*
X139251Y-92324D01*
X139227Y-92355D01*
X139220Y-92388D01*
Y-91231D01*
X139227Y-91265D01*
D02*
G37*
G36*
X142357Y-93827D02*
X142271Y-93746D01*
X142184Y-93673D01*
X142093Y-93609D01*
X141999Y-93554D01*
X141903Y-93507D01*
X141804Y-93468D01*
X141702Y-93438D01*
X141598Y-93417D01*
X141490Y-93404D01*
X141380Y-93400D01*
Y-92600D01*
X141490Y-92596D01*
X141598Y-92583D01*
X141702Y-92562D01*
X141804Y-92532D01*
X141903Y-92493D01*
X141999Y-92446D01*
X142093Y-92391D01*
X142184Y-92327D01*
X142271Y-92254D01*
X142357Y-92173D01*
Y-93827D01*
D02*
G37*
G36*
X139226Y-95221D02*
X139244Y-95269D01*
X139274Y-95310D01*
X139316Y-95347D01*
X139370Y-95377D01*
X139436Y-95402D01*
X139514Y-95422D01*
X139604Y-95436D01*
X139706Y-95444D01*
X139820Y-95447D01*
Y-96047D01*
X139706Y-96050D01*
X139604Y-96058D01*
X139514Y-96072D01*
X139436Y-96092D01*
X139370Y-96117D01*
X139316Y-96147D01*
X139274Y-96184D01*
X139244Y-96225D01*
X139226Y-96273D01*
X139220Y-96325D01*
Y-95168D01*
X139226Y-95221D01*
D02*
G37*
G36*
X134125Y-96325D02*
X134118Y-96292D01*
X134094Y-96261D01*
X134054Y-96235D01*
X133998Y-96211D01*
X133925Y-96192D01*
X133838Y-96176D01*
X133733Y-96163D01*
X133477Y-96149D01*
X133326Y-96147D01*
Y-95347D01*
X133477Y-95345D01*
X133838Y-95318D01*
X133925Y-95302D01*
X133998Y-95283D01*
X134054Y-95259D01*
X134094Y-95233D01*
X134118Y-95202D01*
X134125Y-95168D01*
Y-96325D01*
D02*
G37*
G36*
Y-98295D02*
X134118Y-98261D01*
X134094Y-98230D01*
X134054Y-98203D01*
X133998Y-98180D01*
X133925Y-98161D01*
X133838Y-98145D01*
X133733Y-98132D01*
X133477Y-98118D01*
X133326Y-98116D01*
Y-97316D01*
X133477Y-97314D01*
X133838Y-97287D01*
X133925Y-97271D01*
X133998Y-97252D01*
X134054Y-97228D01*
X134094Y-97202D01*
X134118Y-97171D01*
X134125Y-97137D01*
Y-98295D01*
D02*
G37*
G36*
X139226Y-99158D02*
X139244Y-99206D01*
X139274Y-99247D01*
X139316Y-99284D01*
X139370Y-99314D01*
X139436Y-99339D01*
X139514Y-99359D01*
X139604Y-99373D01*
X139706Y-99381D01*
X139820Y-99384D01*
Y-99984D01*
X139706Y-99987D01*
X139604Y-99995D01*
X139514Y-100009D01*
X139436Y-100029D01*
X139370Y-100054D01*
X139316Y-100084D01*
X139274Y-100120D01*
X139244Y-100162D01*
X139226Y-100210D01*
X139220Y-100262D01*
Y-99105D01*
X139226Y-99158D01*
D02*
G37*
G36*
X134125Y-102232D02*
X134120Y-102179D01*
X134101Y-102131D01*
X134072Y-102090D01*
X134029Y-102053D01*
X133976Y-102023D01*
X133909Y-101998D01*
X133832Y-101978D01*
X133742Y-101964D01*
X133640Y-101956D01*
X133526Y-101953D01*
Y-101353D01*
X133640Y-101350D01*
X133742Y-101342D01*
X133832Y-101328D01*
X133909Y-101308D01*
X133976Y-101283D01*
X134029Y-101253D01*
X134072Y-101216D01*
X134101Y-101175D01*
X134120Y-101127D01*
X134125Y-101075D01*
Y-102232D01*
D02*
G37*
G36*
X139228Y-103074D02*
X139252Y-103103D01*
X139292Y-103128D01*
X139348Y-103150D01*
X139420Y-103168D01*
X139508Y-103184D01*
X139612Y-103195D01*
X139868Y-103209D01*
X140020Y-103210D01*
Y-104010D01*
X139868Y-104012D01*
X139508Y-104041D01*
X139420Y-104058D01*
X139348Y-104079D01*
X139292Y-104103D01*
X139252Y-104131D01*
X139228Y-104164D01*
X139220Y-104200D01*
Y-103042D01*
X139228Y-103074D01*
D02*
G37*
G36*
X141964Y-104434D02*
X141878Y-104354D01*
X141789Y-104282D01*
X141698Y-104218D01*
X141604Y-104163D01*
X141507Y-104116D01*
X141408Y-104078D01*
X141306Y-104049D01*
X141201Y-104027D01*
X141094Y-104015D01*
X140984Y-104010D01*
X140976Y-103210D01*
X141087Y-103206D01*
X141194Y-103193D01*
X141299Y-103172D01*
X141400Y-103142D01*
X141499Y-103103D01*
X141595Y-103056D01*
X141688Y-103000D01*
X141778Y-102936D01*
X141865Y-102862D01*
X141949Y-102781D01*
X141964Y-104434D01*
D02*
G37*
G36*
X147878Y-91965D02*
Y-106003D01*
X147378Y-106263D01*
X147229Y-106164D01*
X146800Y-106078D01*
X146800Y-106078D01*
X141500D01*
X141071Y-106164D01*
X140707Y-106407D01*
X140707Y-106407D01*
X140332Y-106782D01*
X139832Y-106575D01*
Y-106368D01*
X139828D01*
Y-104812D01*
X139832D01*
Y-104667D01*
X139897Y-104662D01*
X140028Y-104660D01*
X140097Y-104630D01*
X140895D01*
X140959Y-104659D01*
X141043Y-104663D01*
X141099Y-104669D01*
X141151Y-104680D01*
X141201Y-104694D01*
X141250Y-104713D01*
X141298Y-104737D01*
X141348Y-104766D01*
X141399Y-104801D01*
X141451Y-104843D01*
X141520Y-104908D01*
X141631Y-104950D01*
X141791Y-105110D01*
X142446Y-105381D01*
X143154D01*
X143809Y-105110D01*
X144310Y-104609D01*
X144581Y-103954D01*
Y-103246D01*
X144310Y-102591D01*
X143809Y-102090D01*
X143154Y-101819D01*
X142446D01*
X141791Y-102090D01*
X141612Y-102269D01*
X141497Y-102314D01*
X141430Y-102380D01*
X141380Y-102422D01*
X141331Y-102457D01*
X141284Y-102485D01*
X141237Y-102508D01*
X141189Y-102527D01*
X141141Y-102541D01*
X141090Y-102552D01*
X141035Y-102558D01*
X140951Y-102562D01*
X140887Y-102591D01*
X140097D01*
X140027Y-102561D01*
X139888Y-102560D01*
X139832Y-102557D01*
Y-100633D01*
X139836Y-100633D01*
X139907Y-100602D01*
X142116D01*
X142467Y-100532D01*
X142765Y-100333D01*
X143849Y-99249D01*
X144048Y-98951D01*
X144118Y-98600D01*
Y-96800D01*
X144048Y-96449D01*
X143849Y-96151D01*
X142979Y-95281D01*
X143186Y-94781D01*
X143554D01*
X144209Y-94510D01*
X144710Y-94009D01*
X144981Y-93354D01*
Y-92646D01*
X144710Y-91991D01*
X144702Y-91983D01*
X144894Y-91522D01*
X147435D01*
X147878Y-91965D01*
D02*
G37*
G36*
X149503Y-107741D02*
X149513Y-107855D01*
X149529Y-107964D01*
X149552Y-108066D01*
X149582Y-108163D01*
X149618Y-108253D01*
X149660Y-108338D01*
X149709Y-108417D01*
X149765Y-108490D01*
X149827Y-108556D01*
X148651D01*
X147819Y-109388D01*
X147816Y-109297D01*
X147803Y-109206D01*
X147782Y-109116D01*
X147752Y-109026D01*
X147714Y-108936D01*
X147666Y-108847D01*
X147610Y-108759D01*
X147545Y-108671D01*
X147471Y-108583D01*
X147389Y-108496D01*
X148096Y-107789D01*
X148183Y-107871D01*
X148271Y-107945D01*
X148359Y-108010D01*
X148447Y-108066D01*
X148448Y-108066D01*
X148448Y-108066D01*
X148471Y-107964D01*
X148487Y-107855D01*
X148497Y-107741D01*
X148500Y-107621D01*
X149500D01*
X149503Y-107741D01*
D02*
G37*
G36*
X134125Y-108137D02*
X134116Y-108122D01*
X134086Y-108108D01*
X134036Y-108097D01*
X133966Y-108086D01*
X133766Y-108071D01*
X133125Y-108058D01*
Y-107058D01*
X133316Y-107057D01*
X134086Y-107008D01*
X134116Y-106994D01*
X134125Y-106979D01*
Y-108137D01*
D02*
G37*
G36*
X139230Y-107195D02*
X139260Y-107280D01*
X139310Y-107355D01*
X139380Y-107420D01*
X139470Y-107475D01*
X139580Y-107520D01*
X139710Y-107555D01*
X139860Y-107580D01*
X140030Y-107595D01*
X140220Y-107600D01*
Y-108600D01*
X140030Y-108595D01*
X139860Y-108581D01*
X139710Y-108558D01*
X139580Y-108526D01*
X139470Y-108484D01*
X139380Y-108433D01*
X139310Y-108373D01*
X139260Y-108303D01*
X139230Y-108225D01*
X139220Y-108137D01*
Y-107100D01*
X139230Y-107195D01*
D02*
G37*
G36*
X137174Y-107675D02*
X137198Y-108019D01*
X137209Y-108074D01*
X137223Y-108117D01*
X137226Y-108124D01*
X137275D01*
X137256Y-108131D01*
X137239Y-108149D01*
X137256Y-108166D01*
X137275Y-108173D01*
X137226D01*
X137223Y-108180D01*
X137209Y-108223D01*
X137198Y-108278D01*
X137189Y-108346D01*
X137177Y-108518D01*
X137173Y-108739D01*
X136173D01*
X136172Y-108622D01*
X136147Y-108278D01*
X136136Y-108223D01*
X136122Y-108180D01*
X136119Y-108173D01*
X136070D01*
X136090Y-108166D01*
X136106Y-108149D01*
X136090Y-108131D01*
X136070Y-108124D01*
X136119D01*
X136122Y-108117D01*
X136136Y-108074D01*
X136147Y-108019D01*
X136156Y-107951D01*
X136169Y-107779D01*
X136173Y-107558D01*
X137173D01*
X137174Y-107675D01*
D02*
G37*
G36*
X106328Y-22954D02*
X106416Y-23027D01*
X106507Y-23091D01*
X106600Y-23146D01*
X106697Y-23193D01*
X106796Y-23232D01*
X106898Y-23262D01*
X107002Y-23283D01*
X107110Y-23296D01*
X107220Y-23300D01*
Y-24100D01*
X107110Y-24104D01*
X107002Y-24117D01*
X106898Y-24138D01*
X106796Y-24168D01*
X106697Y-24207D01*
X106600Y-24254D01*
X106507Y-24309D01*
X106416Y-24373D01*
X106328Y-24446D01*
X106244Y-24527D01*
Y-22873D01*
X106328Y-22954D01*
D02*
G37*
G36*
X111396Y-25305D02*
X111481Y-25372D01*
X111570Y-25431D01*
X111663Y-25482D01*
X111760Y-25525D01*
X111862Y-25560D01*
X111967Y-25587D01*
X112076Y-25605D01*
X112190Y-25616D01*
X112307Y-25619D01*
X111138Y-26788D01*
X111135Y-26671D01*
X111124Y-26557D01*
X111105Y-26448D01*
X111079Y-26343D01*
X111044Y-26241D01*
X111001Y-26144D01*
X110950Y-26051D01*
X110891Y-25962D01*
X110824Y-25877D01*
X110749Y-25796D01*
X111315Y-25230D01*
X111396Y-25305D01*
D02*
G37*
G36*
X106328Y-26354D02*
X106416Y-26427D01*
X106507Y-26491D01*
X106600Y-26546D01*
X106697Y-26593D01*
X106796Y-26632D01*
X106898Y-26662D01*
X107002Y-26683D01*
X107110Y-26696D01*
X107220Y-26700D01*
Y-27500D01*
X107110Y-27504D01*
X107002Y-27517D01*
X106898Y-27538D01*
X106796Y-27568D01*
X106697Y-27607D01*
X106600Y-27654D01*
X106507Y-27709D01*
X106416Y-27773D01*
X106328Y-27846D01*
X106244Y-27927D01*
Y-26273D01*
X106328Y-26354D01*
D02*
G37*
G36*
X111377Y-29805D02*
X111462Y-29872D01*
X111551Y-29931D01*
X111644Y-29982D01*
X111741Y-30025D01*
X111843Y-30060D01*
X111948Y-30086D01*
X112057Y-30105D01*
X112171Y-30116D01*
X112288Y-30119D01*
X111119Y-31288D01*
X111116Y-31171D01*
X111105Y-31057D01*
X111086Y-30948D01*
X111060Y-30843D01*
X111025Y-30741D01*
X110982Y-30644D01*
X110931Y-30551D01*
X110872Y-30462D01*
X110805Y-30377D01*
X110730Y-30296D01*
X111296Y-29730D01*
X111377Y-29805D01*
D02*
G37*
G36*
X113278Y-56393D02*
X113362Y-56468D01*
X113450Y-56534D01*
X113540Y-56591D01*
X113635Y-56640D01*
X113732Y-56679D01*
X113833Y-56710D01*
X113937Y-56732D01*
X114045Y-56746D01*
X114156Y-56750D01*
X114120Y-57550D01*
X114010Y-57554D01*
X113903Y-57566D01*
X113798Y-57587D01*
X113695Y-57616D01*
X113594Y-57653D01*
X113496Y-57698D01*
X113400Y-57752D01*
X113307Y-57814D01*
X113216Y-57884D01*
X113127Y-57962D01*
X113197Y-56310D01*
X113278Y-56393D01*
D02*
G37*
G36*
X117822Y-57990D02*
X117741Y-57907D01*
X117657Y-57832D01*
X117569Y-57766D01*
X117479Y-57709D01*
X117384Y-57660D01*
X117287Y-57621D01*
X117186Y-57590D01*
X117082Y-57568D01*
X116974Y-57554D01*
X116863Y-57550D01*
X116899Y-56750D01*
X117009Y-56746D01*
X117116Y-56734D01*
X117221Y-56713D01*
X117324Y-56684D01*
X117424Y-56647D01*
X117523Y-56602D01*
X117618Y-56548D01*
X117712Y-56486D01*
X117803Y-56416D01*
X117892Y-56338D01*
X117822Y-57990D01*
D02*
G37*
D11*
X136673Y-108739D02*
Y-107558D01*
X137263Y-108149D02*
X137515Y-108400D01*
X129900Y-60000D02*
X137300D01*
X127700Y-62200D02*
X129900Y-60000D01*
X127700Y-105800D02*
Y-62200D01*
X136673Y-107558D02*
X137263Y-108149D01*
X137312Y-108100D01*
X136673Y-108739D02*
X137263Y-108149D01*
X127700Y-105800D02*
X129458Y-107558D01*
X136673D01*
X141700Y-90400D02*
X147900D01*
X140551Y-89251D02*
X141700Y-90400D01*
X136672Y-89251D02*
X140551D01*
X149000Y-109400D02*
Y-91500D01*
X147900Y-90400D02*
X149000Y-91500D01*
X141500Y-107200D02*
X146800D01*
X149000Y-109400D01*
X140600Y-108100D02*
X141500Y-107200D01*
X137312Y-108100D02*
X140600D01*
D12*
X136673Y-85511D02*
D03*
Y-86692D02*
D03*
X136672Y-88660D02*
D03*
Y-89842D02*
D03*
X136673Y-91810D02*
D03*
X136669Y-93780D02*
D03*
X136673Y-95747D02*
D03*
Y-97716D02*
D03*
Y-99684D02*
D03*
Y-101653D02*
D03*
Y-103621D02*
D03*
X136669Y-105590D02*
D03*
X136673Y-107558D02*
D03*
Y-108739D02*
D03*
Y-110708D02*
D03*
Y-111889D02*
D03*
D25*
X108100Y-27100D02*
X112300Y-31300D01*
X105400Y-27100D02*
X108100D01*
X109219Y-23700D02*
X112319Y-26800D01*
X105400Y-23700D02*
X109219D01*
X112369Y-57150D02*
X118650D01*
X112319Y-57100D02*
X112369Y-57150D01*
X118650D02*
X118700Y-57200D01*
X122200Y-82700D02*
Y-27016D01*
X124400Y-24815D01*
Y-21300D01*
X143500Y-47400D02*
X145000Y-48900D01*
Y-73100D02*
Y-48900D01*
X143800Y-41000D02*
X147100Y-44300D01*
Y-74000D02*
Y-44300D01*
X131984Y-97716D02*
X136673D01*
X131816D02*
X131984D01*
X142800Y-75300D02*
X145000Y-73100D01*
X132100Y-75300D02*
X142800D01*
X129400Y-95300D02*
Y-78000D01*
X132100Y-75300D01*
X133400Y-77000D02*
X144100D01*
X131400Y-94400D02*
Y-79000D01*
X133400Y-77000D01*
X131400Y-94400D02*
X132747Y-95747D01*
X129400Y-95300D02*
X131816Y-97716D01*
X144100Y-77000D02*
X147100Y-74000D01*
X132747Y-95747D02*
X136673D01*
X141200Y-93000D02*
X143200D01*
X136673Y-91810D02*
X140010D01*
X141200Y-93000D01*
X136683Y-103611D02*
X142789D01*
X136673Y-103621D02*
X136683Y-103611D01*
X142789D02*
X142800Y-103600D01*
D26*
X106900Y-94900D02*
Y-74600D01*
Y-115200D02*
Y-94900D01*
D27*
X113000Y8900D02*
X115500Y11400D01*
X125400Y8900D02*
X129300Y5000D01*
X116200Y8900D02*
X125400D01*
X129300Y-19100D02*
Y5000D01*
X127100Y-21300D02*
X129300Y-19100D01*
X124800Y11400D02*
X130500Y5700D01*
X115500Y11400D02*
X124800D01*
X127100Y-24000D02*
Y-21300D01*
X130500Y-21600D02*
Y5700D01*
X126700Y-30000D02*
X138300D01*
X141000Y-64000D02*
Y-24100D01*
X137800Y-23200D02*
X140100D01*
X141000Y-24100D01*
X139100Y-65900D02*
X141000Y-64000D01*
X136900Y-22300D02*
Y-17600D01*
Y-22300D02*
X137800Y-23200D01*
X124500Y-27800D02*
X126700Y-30000D01*
X142147Y-95747D02*
X143200Y-96800D01*
X136673Y-95747D02*
X142147D01*
X143200Y-98600D02*
Y-96800D01*
X136673Y-99684D02*
X142116D01*
X143200Y-98600D01*
X131000Y-98700D02*
X131984Y-97716D01*
X131000Y-100800D02*
Y-98700D01*
Y-100800D02*
X131853Y-101653D01*
X136673D01*
D28*
X12600Y-82585D02*
X14515Y-84500D01*
X46500D02*
X56900Y-94900D01*
X14515Y-84500D02*
X46500D01*
X46800Y-105100D02*
X54800Y-113100D01*
X15430Y-105100D02*
X46800D01*
X12600Y-102270D02*
X15430Y-105100D01*
X45200Y-62900D02*
X56900Y-74600D01*
X12600Y-62900D02*
X45200D01*
X12600Y-15000D02*
X24400Y-26800D01*
X41800D01*
X12600Y5000D02*
X29685D01*
X41800Y-7115D01*
D29*
X122200Y-82700D02*
D03*
D30*
Y-92700D02*
D03*
Y-102700D02*
D03*
Y-112700D02*
D03*
D31*
X12600Y5000D02*
D03*
Y-43215D02*
D03*
D32*
Y-15000D02*
D03*
Y-102270D02*
D03*
Y-82585D02*
D03*
Y-62900D02*
D03*
D33*
X157548Y-47273D02*
D03*
Y13357D02*
D03*
X41800Y-26800D02*
D03*
Y-7115D02*
D03*
D34*
X140875Y-115708D02*
D03*
Y-81692D02*
D03*
D35*
X157332D02*
D03*
Y-115708D02*
D03*
D36*
X142962Y-87322D02*
D03*
Y-110078D02*
D03*
D37*
X36900Y-74600D02*
D03*
X56900D02*
D03*
X36900Y-115200D02*
D03*
X56900D02*
D03*
X36900Y-94900D02*
D03*
X56900D02*
D03*
D38*
X96900Y-74600D02*
D03*
X106900D02*
D03*
X96900Y-115200D02*
D03*
X106900D02*
D03*
X96900Y-94900D02*
D03*
X106900D02*
D03*
D39*
X112300Y-39000D02*
D03*
X145500Y-99500D02*
D03*
X105400Y-27100D02*
D03*
Y-23700D02*
D03*
X112319Y-26800D02*
D03*
X112300Y-31300D02*
D03*
X105437Y-31378D02*
D03*
X115200Y17800D02*
D03*
X89637Y-7637D02*
D03*
X85700D02*
D03*
X89637Y-3700D02*
D03*
X85700D02*
D03*
X89637Y237D02*
D03*
X85700D02*
D03*
X89637Y4174D02*
D03*
X85700D02*
D03*
X103237Y-6000D02*
D03*
X99300D02*
D03*
X103237Y-2063D02*
D03*
X99300D02*
D03*
X118900Y-30400D02*
D03*
X143600Y-37000D02*
D03*
X123700Y20637D02*
D03*
X96300Y-88800D02*
D03*
X100237D02*
D03*
X156900Y-15200D02*
D03*
X160837D02*
D03*
X123700Y16700D02*
D03*
X96500Y-68200D02*
D03*
X100437D02*
D03*
X156900Y-19137D02*
D03*
X160837D02*
D03*
X96400Y-108800D02*
D03*
X100337D02*
D03*
X156200Y-62400D02*
D03*
X101500Y-31378D02*
D03*
X156200Y-66337D02*
D03*
X101500Y-35315D02*
D03*
X105437D02*
D03*
X156200Y-70274D02*
D03*
X101500Y-39252D02*
D03*
X105437D02*
D03*
X101500Y-43189D02*
D03*
X105437D02*
D03*
X112626Y-2200D02*
D03*
X116563D02*
D03*
X120500D02*
D03*
X112626Y-6137D02*
D03*
X116563D02*
D03*
X120500D02*
D03*
X112626Y-10074D02*
D03*
X116563D02*
D03*
X120500D02*
D03*
X149000Y-109400D02*
D03*
X113000Y8900D02*
D03*
X112319Y-57100D02*
D03*
X118700Y-57200D02*
D03*
X124400Y-21300D02*
D03*
X116200Y8900D02*
D03*
X130500Y-21600D02*
D03*
X127100Y-24000D02*
D03*
X138300Y-30000D02*
D03*
X136900Y-17600D02*
D03*
X139100Y-65900D02*
D03*
X137300Y-60000D02*
D03*
X124500Y-27800D02*
D03*
X143500Y-47400D02*
D03*
X143800Y-41000D02*
D03*
X161400Y-95900D02*
D03*
X143200Y-93000D02*
D03*
X142800Y-103600D02*
D03*
D40*
X131600Y12200D02*
D03*
X134600D02*
D03*
X137600D02*
D03*
X140600D02*
D03*
X143600D02*
D03*
X146600D02*
D03*
X149600D02*
D03*
X152200Y17300D02*
D03*
Y20300D02*
D03*
D41*
X132931Y-38869D02*
D03*
X128600D02*
D03*
X124269D02*
D03*
X132931Y-43200D02*
D03*
X128600D02*
D03*
X124269D02*
D03*
X132931Y-47531D02*
D03*
X128600D02*
D03*
X124269D02*
D03*
M02*
