G04*
G04 #@! TF.GenerationSoftware,Altium Limited,Altium Designer,23.4.1 (23)*
G04*
G04 Layer_Color=16711935*
%FSLAX25Y25*%
%MOIN*%
G70*
G04*
G04 #@! TF.SameCoordinates,8CB6A174-BB40-4334-975E-19112FE07875*
G04*
G04*
G04 #@! TF.FilePolarity,Negative*
G04*
G01*
G75*
%ADD15R,0.07493X0.07493*%
%ADD16C,0.07493*%
%ADD17R,0.09855X0.09855*%
%ADD18C,0.09855*%
%ADD19C,0.08674*%
%ADD20O,0.08674X0.05524*%
%ADD21O,0.07887X0.05524*%
%ADD22C,0.03753*%
%ADD23C,0.07887*%
%ADD24C,0.07099*%
%ADD63C,0.04000*%
%ADD64R,0.25306X0.09395*%
%ADD65R,0.02375X0.02769*%
%ADD66R,0.02769X0.02375*%
%ADD67R,0.01981X0.02572*%
%ADD68R,0.04737X0.01981*%
%ADD69O,0.04737X0.01981*%
%ADD70O,0.01981X0.04737*%
G04:AMPARAMS|DCode=71|XSize=98mil|YSize=98mil|CornerRadius=13mil|HoleSize=0mil|Usage=FLASHONLY|Rotation=180.000|XOffset=0mil|YOffset=0mil|HoleType=Round|Shape=RoundedRectangle|*
%AMROUNDEDRECTD71*
21,1,0.09800,0.07200,0,0,180.0*
21,1,0.07200,0.09800,0,0,180.0*
1,1,0.02600,-0.03600,0.03600*
1,1,0.02600,0.03600,0.03600*
1,1,0.02600,0.03600,-0.03600*
1,1,0.02600,-0.03600,-0.03600*
%
%ADD71ROUNDEDRECTD71*%
G04:AMPARAMS|DCode=72|XSize=47.37mil|YSize=39.5mil|CornerRadius=0mil|HoleSize=0mil|Usage=FLASHONLY|Rotation=180.000|XOffset=0mil|YOffset=0mil|HoleType=Round|Shape=Octagon|*
%AMOCTAGOND72*
4,1,8,-0.02368,0.00987,-0.02368,-0.00987,-0.01381,-0.01975,0.01381,-0.01975,0.02368,-0.00987,0.02368,0.00987,0.01381,0.01975,-0.01381,0.01975,-0.02368,0.00987,0.0*
%
%ADD72OCTAGOND72*%

%ADD73R,0.04737X0.03950*%
%ADD74R,0.05524X0.02769*%
%ADD75R,0.11036X0.10249*%
%ADD76R,0.05918X0.05524*%
%ADD77O,0.04540X0.01587*%
%ADD78O,0.01587X0.04540*%
%ADD79R,0.13123X0.13123*%
G04:AMPARAMS|DCode=80|XSize=47.37mil|YSize=39.5mil|CornerRadius=0mil|HoleSize=0mil|Usage=FLASHONLY|Rotation=270.000|XOffset=0mil|YOffset=0mil|HoleType=Round|Shape=Octagon|*
%AMOCTAGOND80*
4,1,8,-0.00987,-0.02368,0.00987,-0.02368,0.01975,-0.01381,0.01975,0.01381,0.00987,0.02368,-0.00987,0.02368,-0.01975,0.01381,-0.01975,-0.01381,-0.00987,-0.02368,0.0*
%
%ADD80OCTAGOND80*%

%ADD81R,0.03950X0.04737*%
G04:AMPARAMS|DCode=82|XSize=39.5mil|YSize=78.87mil|CornerRadius=11.87mil|HoleSize=0mil|Usage=FLASHONLY|Rotation=0.000|XOffset=0mil|YOffset=0mil|HoleType=Round|Shape=RoundedRectangle|*
%AMROUNDEDRECTD82*
21,1,0.03950,0.05512,0,0,0.0*
21,1,0.01575,0.07887,0,0,0.0*
1,1,0.02375,0.00787,-0.02756*
1,1,0.02375,-0.00787,-0.02756*
1,1,0.02375,-0.00787,0.02756*
1,1,0.02375,0.00787,0.02756*
%
%ADD82ROUNDEDRECTD82*%
G04:AMPARAMS|DCode=83|XSize=31.62mil|YSize=47.37mil|CornerRadius=6.01mil|HoleSize=0mil|Usage=FLASHONLY|Rotation=90.000|XOffset=0mil|YOffset=0mil|HoleType=Round|Shape=RoundedRectangle|*
%AMROUNDEDRECTD83*
21,1,0.03162,0.03535,0,0,90.0*
21,1,0.01961,0.04737,0,0,90.0*
1,1,0.01202,0.01768,0.00980*
1,1,0.01202,0.01768,-0.00980*
1,1,0.01202,-0.01768,-0.00980*
1,1,0.01202,-0.01768,0.00980*
%
%ADD83ROUNDEDRECTD83*%
D15*
X122200Y-82700D02*
D03*
D16*
Y-92700D02*
D03*
Y-102700D02*
D03*
Y-112700D02*
D03*
D17*
X12600Y5000D02*
D03*
Y-43215D02*
D03*
D18*
Y-15000D02*
D03*
Y-102270D02*
D03*
Y-82585D02*
D03*
Y-62900D02*
D03*
D19*
X157548Y-47273D02*
D03*
Y13357D02*
D03*
X41800Y-26800D02*
D03*
Y-7115D02*
D03*
D20*
X140875Y-115708D02*
D03*
Y-81692D02*
D03*
D21*
X157332D02*
D03*
Y-115708D02*
D03*
D22*
X142962Y-87322D02*
D03*
Y-110078D02*
D03*
D23*
X36900Y-74600D02*
D03*
X56900D02*
D03*
X36900Y-115200D02*
D03*
X56900D02*
D03*
X36900Y-94900D02*
D03*
X56900D02*
D03*
D24*
X96900Y-74600D02*
D03*
X106900D02*
D03*
X96900Y-115200D02*
D03*
X106900D02*
D03*
X96900Y-94900D02*
D03*
X106900D02*
D03*
D63*
X36900Y-115200D02*
Y-74600D01*
Y-53200D01*
X26915Y-43215D02*
X36900Y-53200D01*
X12600Y-43215D02*
X26915D01*
X12600Y-15000D02*
X24400Y-26800D01*
X41800D01*
X12600Y5000D02*
X29685D01*
X41800Y-7115D01*
D64*
X138053Y18402D02*
D03*
D65*
X103771Y-23600D02*
D03*
X100425Y-23600D02*
D03*
X103771Y-27100D02*
D03*
X100425Y-27100D02*
D03*
X147675Y-91800D02*
D03*
X144329D02*
D03*
X131725Y-92300D02*
D03*
X135071Y-92300D02*
D03*
X131725Y-96500D02*
D03*
X135071Y-96500D02*
D03*
X131725Y-88100D02*
D03*
X135071Y-88100D02*
D03*
X91525Y-63900D02*
D03*
X94871Y-63900D02*
D03*
X118771Y15500D02*
D03*
X115228Y15500D02*
D03*
X118771Y20000D02*
D03*
X115228Y20000D02*
D03*
X137129Y450D02*
D03*
X140672Y450D02*
D03*
X132529Y-59900D02*
D03*
X135875Y-59900D02*
D03*
X95071Y-84500D02*
D03*
X91725Y-84500D02*
D03*
X94771Y-104800D02*
D03*
X91425D02*
D03*
X140472Y-15800D02*
D03*
X136929Y-15800D02*
D03*
X140471Y-11600D02*
D03*
X137125Y-11600D02*
D03*
X137225Y8900D02*
D03*
X140571D02*
D03*
X137129Y4600D02*
D03*
X140672Y4600D02*
D03*
X137129Y-3700D02*
D03*
X140672Y-3700D02*
D03*
X144329Y-103600D02*
D03*
X147675D02*
D03*
X153128Y-105300D02*
D03*
X156671Y-105300D02*
D03*
X150972Y-86300D02*
D03*
X147429Y-86300D02*
D03*
X151072Y-81700D02*
D03*
X147529Y-81700D02*
D03*
D66*
X127100Y-68229D02*
D03*
X127100Y-71575D02*
D03*
X141700Y-71671D02*
D03*
X141700Y-68325D02*
D03*
X86200Y-67275D02*
D03*
Y-63929D02*
D03*
X130600Y-26475D02*
D03*
X130600Y-23129D02*
D03*
X106913Y15729D02*
D03*
X106913Y19272D02*
D03*
X106912Y12571D02*
D03*
X106913Y9028D02*
D03*
X98900Y-13771D02*
D03*
X98900Y-10228D02*
D03*
X120800Y-23029D02*
D03*
X120800Y-26572D02*
D03*
X86400Y-84429D02*
D03*
Y-87775D02*
D03*
X86000Y-104929D02*
D03*
Y-108275D02*
D03*
X111113Y19200D02*
D03*
X111113Y15854D02*
D03*
D67*
X136469Y-67354D02*
D03*
X134500Y-67354D02*
D03*
X132532D02*
D03*
X132532Y-72669D02*
D03*
X134500D02*
D03*
X136469D02*
D03*
D68*
X127853Y192D02*
D03*
D69*
Y-1777D02*
D03*
Y-3746D02*
D03*
Y-5715D02*
D03*
Y-7684D02*
D03*
Y-9653D02*
D03*
Y-11622D02*
D03*
Y-13591D02*
D03*
X107947Y-13788D02*
D03*
Y-11819D02*
D03*
Y-9850D02*
D03*
Y-7881D02*
D03*
Y-5912D02*
D03*
Y-3943D02*
D03*
Y-1974D02*
D03*
Y-5D02*
D03*
D70*
X124792Y-16653D02*
D03*
X122822D02*
D03*
X120853D02*
D03*
X118885D02*
D03*
X116916D02*
D03*
X114946D02*
D03*
X112978D02*
D03*
X111009D02*
D03*
Y3253D02*
D03*
X112978D02*
D03*
X114946D02*
D03*
X116916D02*
D03*
X118885D02*
D03*
X120853D02*
D03*
X122822D02*
D03*
X124792D02*
D03*
D71*
X117900Y-6700D02*
D03*
D72*
X49088Y-84850D02*
D03*
Y-64500D02*
D03*
Y-105200D02*
D03*
X162812Y-110100D02*
D03*
D73*
X60112Y-84850D02*
D03*
Y-64500D02*
D03*
Y-105200D02*
D03*
X151788Y-110100D02*
D03*
D74*
X69900Y-67700D02*
D03*
X78900Y-71440D02*
D03*
Y-63960D02*
D03*
Y-84410D02*
D03*
Y-91890D02*
D03*
X69900Y-88150D02*
D03*
X78900Y-104860D02*
D03*
Y-112340D02*
D03*
X69900Y-108600D02*
D03*
D75*
X158300Y-3830D02*
D03*
Y-32570D02*
D03*
D76*
X100234Y17646D02*
D03*
X91966D02*
D03*
Y10954D02*
D03*
X100234D02*
D03*
D77*
X138344Y-37295D02*
D03*
Y-39263D02*
D03*
Y-41232D02*
D03*
Y-43200D02*
D03*
Y-45169D02*
D03*
Y-47137D02*
D03*
Y-49106D02*
D03*
X118856D02*
D03*
Y-47137D02*
D03*
Y-45169D02*
D03*
Y-43200D02*
D03*
Y-41232D02*
D03*
Y-39263D02*
D03*
Y-37295D02*
D03*
D78*
X134505Y-52944D02*
D03*
X132537D02*
D03*
X130569D02*
D03*
X128600D02*
D03*
X126631D02*
D03*
X124663D02*
D03*
X122695D02*
D03*
Y-33456D02*
D03*
X124663D02*
D03*
X126631D02*
D03*
X128600D02*
D03*
X130569D02*
D03*
X132537D02*
D03*
X134505D02*
D03*
D79*
X128600Y-43200D02*
D03*
D80*
X163200Y-72512D02*
D03*
D81*
Y-61488D02*
D03*
D82*
X147991Y18200D02*
D03*
X127900D02*
D03*
D83*
X153100Y-92120D02*
D03*
Y-99600D02*
D03*
X163927D02*
D03*
X163927Y-95860D02*
D03*
X163927Y-92120D02*
D03*
M02*
