G04*
G04 #@! TF.GenerationSoftware,Altium Limited,Altium Designer,23.4.1 (23)*
G04*
G04 Layer_Color=255*
%FSLAX25Y25*%
%MOIN*%
G70*
G04*
G04 #@! TF.SameCoordinates,8CB6A174-BB40-4334-975E-19112FE07875*
G04*
G04*
G04 #@! TF.FilePolarity,Positive*
G04*
G01*
G75*
%ADD29R,0.06693X0.06693*%
%ADD30C,0.06693*%
%ADD31R,0.09055X0.09055*%
%ADD32C,0.09055*%
%ADD33C,0.07874*%
%ADD34O,0.07874X0.04724*%
%ADD35O,0.07087X0.04724*%
%ADD36C,0.02953*%
%ADD37C,0.07087*%
%ADD38C,0.06299*%
%ADD42R,0.01575X0.01968*%
%ADD43R,0.01968X0.01575*%
%ADD44R,0.01181X0.01772*%
%ADD45R,0.03937X0.01181*%
%ADD46O,0.03937X0.01181*%
%ADD47O,0.01181X0.03937*%
G04:AMPARAMS|DCode=48|XSize=90mil|YSize=90mil|CornerRadius=9mil|HoleSize=0mil|Usage=FLASHONLY|Rotation=180.000|XOffset=0mil|YOffset=0mil|HoleType=Round|Shape=RoundedRectangle|*
%AMROUNDEDRECTD48*
21,1,0.09000,0.07200,0,0,180.0*
21,1,0.07200,0.09000,0,0,180.0*
1,1,0.01800,-0.03600,0.03600*
1,1,0.01800,0.03600,0.03600*
1,1,0.01800,0.03600,-0.03600*
1,1,0.01800,-0.03600,-0.03600*
%
%ADD48ROUNDEDRECTD48*%
G04:AMPARAMS|DCode=49|XSize=39.37mil|YSize=31.5mil|CornerRadius=0mil|HoleSize=0mil|Usage=FLASHONLY|Rotation=180.000|XOffset=0mil|YOffset=0mil|HoleType=Round|Shape=Octagon|*
%AMOCTAGOND49*
4,1,8,-0.01968,0.00787,-0.01968,-0.00787,-0.01181,-0.01575,0.01181,-0.01575,0.01968,-0.00787,0.01968,0.00787,0.01181,0.01575,-0.01181,0.01575,-0.01968,0.00787,0.0*
%
%ADD49OCTAGOND49*%

%ADD50R,0.03937X0.03150*%
%ADD51R,0.04724X0.01968*%
%ADD52R,0.10236X0.09449*%
%ADD53R,0.05118X0.04724*%
%ADD54O,0.03740X0.00787*%
%ADD55O,0.00787X0.03740*%
%ADD56R,0.12323X0.12323*%
G04:AMPARAMS|DCode=57|XSize=39.37mil|YSize=31.5mil|CornerRadius=0mil|HoleSize=0mil|Usage=FLASHONLY|Rotation=270.000|XOffset=0mil|YOffset=0mil|HoleType=Round|Shape=Octagon|*
%AMOCTAGOND57*
4,1,8,-0.00787,-0.01968,0.00787,-0.01968,0.01575,-0.01181,0.01575,0.01181,0.00787,0.01968,-0.00787,0.01968,-0.01575,0.01181,-0.01575,-0.01181,-0.00787,-0.01968,0.0*
%
%ADD57OCTAGOND57*%

%ADD58R,0.03150X0.03937*%
G04:AMPARAMS|DCode=59|XSize=31.5mil|YSize=70.87mil|CornerRadius=7.87mil|HoleSize=0mil|Usage=FLASHONLY|Rotation=0.000|XOffset=0mil|YOffset=0mil|HoleType=Round|Shape=RoundedRectangle|*
%AMROUNDEDRECTD59*
21,1,0.03150,0.05512,0,0,0.0*
21,1,0.01575,0.07087,0,0,0.0*
1,1,0.01575,0.00787,-0.02756*
1,1,0.01575,-0.00787,-0.02756*
1,1,0.01575,-0.00787,0.02756*
1,1,0.01575,0.00787,0.02756*
%
%ADD59ROUNDEDRECTD59*%
G04:AMPARAMS|DCode=60|XSize=23.62mil|YSize=39.37mil|CornerRadius=2.01mil|HoleSize=0mil|Usage=FLASHONLY|Rotation=90.000|XOffset=0mil|YOffset=0mil|HoleType=Round|Shape=RoundedRectangle|*
%AMROUNDEDRECTD60*
21,1,0.02362,0.03535,0,0,90.0*
21,1,0.01961,0.03937,0,0,90.0*
1,1,0.00402,0.01768,0.00980*
1,1,0.00402,0.01768,-0.00980*
1,1,0.00402,-0.01768,-0.00980*
1,1,0.00402,-0.01768,0.00980*
%
%ADD60ROUNDEDRECTD60*%
D29*
X122200Y-82700D02*
D03*
D30*
Y-92700D02*
D03*
Y-102700D02*
D03*
Y-112700D02*
D03*
D31*
X12600Y5000D02*
D03*
Y-43215D02*
D03*
D32*
Y-15000D02*
D03*
Y-102270D02*
D03*
Y-82585D02*
D03*
Y-62900D02*
D03*
D33*
X157548Y-47273D02*
D03*
Y13357D02*
D03*
X41800Y-26800D02*
D03*
Y-7115D02*
D03*
D34*
X140875Y-115708D02*
D03*
Y-81692D02*
D03*
D35*
X157332D02*
D03*
Y-115708D02*
D03*
D36*
X142962Y-87322D02*
D03*
Y-110078D02*
D03*
D37*
X36900Y-74600D02*
D03*
X56900D02*
D03*
X36900Y-115200D02*
D03*
X56900D02*
D03*
X36900Y-94900D02*
D03*
X56900D02*
D03*
D38*
X96900Y-74600D02*
D03*
X106900D02*
D03*
X96900Y-115200D02*
D03*
X106900D02*
D03*
X96900Y-94900D02*
D03*
X106900D02*
D03*
D42*
X103771Y-23600D02*
D03*
X100425Y-23600D02*
D03*
X103771Y-27100D02*
D03*
X100425Y-27100D02*
D03*
X147675Y-91800D02*
D03*
X144329D02*
D03*
X131725Y-92300D02*
D03*
X135071Y-92300D02*
D03*
X131725Y-96500D02*
D03*
X135071Y-96500D02*
D03*
X131725Y-88100D02*
D03*
X135071Y-88100D02*
D03*
X91525Y-63900D02*
D03*
X94871Y-63900D02*
D03*
X118771Y15500D02*
D03*
X115228Y15500D02*
D03*
X118771Y20000D02*
D03*
X115228Y20000D02*
D03*
X137129Y450D02*
D03*
X140672Y450D02*
D03*
X132529Y-59900D02*
D03*
X135875Y-59900D02*
D03*
X95071Y-84500D02*
D03*
X91725Y-84500D02*
D03*
X94771Y-104800D02*
D03*
X91425D02*
D03*
X140472Y-15800D02*
D03*
X136929Y-15800D02*
D03*
X140471Y-11600D02*
D03*
X137125Y-11600D02*
D03*
X137225Y8900D02*
D03*
X140571D02*
D03*
X137129Y4600D02*
D03*
X140672Y4600D02*
D03*
X137129Y-3700D02*
D03*
X140672Y-3700D02*
D03*
X144329Y-103600D02*
D03*
X147675D02*
D03*
X153128Y-105300D02*
D03*
X156671Y-105300D02*
D03*
X150972Y-86300D02*
D03*
X147429Y-86300D02*
D03*
X151072Y-81700D02*
D03*
X147529Y-81700D02*
D03*
D43*
X127100Y-68229D02*
D03*
X127100Y-71575D02*
D03*
X141700Y-71671D02*
D03*
X141700Y-68325D02*
D03*
X86200Y-67275D02*
D03*
Y-63929D02*
D03*
X130600Y-26475D02*
D03*
X130600Y-23129D02*
D03*
X106913Y15729D02*
D03*
X106913Y19272D02*
D03*
X106912Y12571D02*
D03*
X106913Y9028D02*
D03*
X98900Y-13771D02*
D03*
X98900Y-10228D02*
D03*
X120800Y-23029D02*
D03*
X120800Y-26572D02*
D03*
X86400Y-84429D02*
D03*
Y-87775D02*
D03*
X86000Y-104929D02*
D03*
Y-108275D02*
D03*
X111113Y19200D02*
D03*
X111113Y15854D02*
D03*
D44*
X136469Y-67354D02*
D03*
X134500Y-67354D02*
D03*
X132532D02*
D03*
X132532Y-72669D02*
D03*
X134500D02*
D03*
X136469D02*
D03*
D45*
X127853Y192D02*
D03*
D46*
Y-1777D02*
D03*
Y-3746D02*
D03*
Y-5715D02*
D03*
Y-7684D02*
D03*
Y-9653D02*
D03*
Y-11622D02*
D03*
Y-13591D02*
D03*
X107947Y-13788D02*
D03*
Y-11819D02*
D03*
Y-9850D02*
D03*
Y-7881D02*
D03*
Y-5912D02*
D03*
Y-3943D02*
D03*
Y-1974D02*
D03*
Y-5D02*
D03*
D47*
X124792Y-16653D02*
D03*
X122822D02*
D03*
X120853D02*
D03*
X118885D02*
D03*
X116916D02*
D03*
X114946D02*
D03*
X112978D02*
D03*
X111009D02*
D03*
Y3253D02*
D03*
X112978D02*
D03*
X114946D02*
D03*
X116916D02*
D03*
X118885D02*
D03*
X120853D02*
D03*
X122822D02*
D03*
X124792D02*
D03*
D48*
X117900Y-6700D02*
D03*
D49*
X49088Y-84850D02*
D03*
Y-64500D02*
D03*
Y-105200D02*
D03*
X162812Y-110100D02*
D03*
D50*
X60112Y-84850D02*
D03*
Y-64500D02*
D03*
Y-105200D02*
D03*
X151788Y-110100D02*
D03*
D51*
X69900Y-67700D02*
D03*
X78900Y-71440D02*
D03*
Y-63960D02*
D03*
Y-84410D02*
D03*
Y-91890D02*
D03*
X69900Y-88150D02*
D03*
X78900Y-104860D02*
D03*
Y-112340D02*
D03*
X69900Y-108600D02*
D03*
D52*
X158300Y-3830D02*
D03*
Y-32570D02*
D03*
D53*
X100234Y17646D02*
D03*
X91966D02*
D03*
Y10954D02*
D03*
X100234D02*
D03*
D54*
X138344Y-37295D02*
D03*
Y-39263D02*
D03*
Y-41232D02*
D03*
Y-43200D02*
D03*
Y-45169D02*
D03*
Y-47137D02*
D03*
Y-49106D02*
D03*
X118856D02*
D03*
Y-47137D02*
D03*
Y-45169D02*
D03*
Y-43200D02*
D03*
Y-41232D02*
D03*
Y-39263D02*
D03*
Y-37295D02*
D03*
D55*
X134505Y-52944D02*
D03*
X132537D02*
D03*
X130569D02*
D03*
X128600D02*
D03*
X126631D02*
D03*
X124663D02*
D03*
X122695D02*
D03*
Y-33456D02*
D03*
X124663D02*
D03*
X126631D02*
D03*
X128600D02*
D03*
X130569D02*
D03*
X132537D02*
D03*
X134505D02*
D03*
D56*
X128600Y-43200D02*
D03*
D57*
X163200Y-72512D02*
D03*
D58*
Y-61488D02*
D03*
D59*
X147991Y18200D02*
D03*
X127900D02*
D03*
D60*
X153100Y-92120D02*
D03*
Y-99600D02*
D03*
X163927D02*
D03*
X163927Y-95860D02*
D03*
X163927Y-92120D02*
D03*
M02*
