G04*
G04 #@! TF.GenerationSoftware,Altium Limited,Altium Designer,23.4.1 (23)*
G04*
G04 Layer_Color=32768*
%FSLAX25Y25*%
%MOIN*%
G70*
G04*
G04 #@! TF.SameCoordinates,8CB6A174-BB40-4334-975E-19112FE07875*
G04*
G04*
G04 #@! TF.FilePolarity,Positive*
G04*
G01*
G75*
%ADD88C,0.00394*%
%ADD89C,0.00100*%
%ADD90C,0.00197*%
%ADD91C,0.00158*%
%ADD92C,0.00010*%
D88*
X130900Y-19700D02*
Y6300D01*
X104900D02*
X130900D01*
X104900Y-19700D02*
Y6300D01*
Y-19700D02*
X130900D01*
X66900Y-73999D02*
X81900D01*
X66900Y-61401D02*
X81900D01*
X66900Y-73999D02*
Y-61401D01*
X81900Y-73999D02*
Y-61401D01*
X126631Y-43200D02*
X130569D01*
X128600Y-45169D02*
Y-41232D01*
X81900Y-94449D02*
Y-81851D01*
X66900Y-94449D02*
Y-81851D01*
X81900D01*
X66900Y-94449D02*
X81900D01*
Y-114899D02*
Y-102301D01*
X66900Y-114899D02*
Y-102301D01*
X81900D01*
X66900Y-114899D02*
X81900D01*
X158513Y-97828D02*
Y-93891D01*
X156545Y-95860D02*
X160482D01*
D89*
X102500Y-23600D02*
G03*
X102500Y-23600I-500J0D01*
G01*
Y-27100D02*
G03*
X102500Y-27100I-500J0D01*
G01*
X127600Y-70000D02*
G03*
X127600Y-70000I-500J0D01*
G01*
X142200Y-69900D02*
G03*
X142200Y-69900I-500J0D01*
G01*
X146600Y-91800D02*
G03*
X146600Y-91800I-500J0D01*
G01*
X133800Y-92300D02*
G03*
X133800Y-92300I-500J0D01*
G01*
Y-96500D02*
G03*
X133800Y-96500I-500J0D01*
G01*
Y-88100D02*
G03*
X133800Y-88100I-500J0D01*
G01*
X86700Y-65700D02*
G03*
X86700Y-65700I-500J0D01*
G01*
X93600Y-63900D02*
G03*
X93600Y-63900I-500J0D01*
G01*
X131100Y-24900D02*
G03*
X131100Y-24900I-500J0D01*
G01*
X107413Y17500D02*
G03*
X107413Y17500I-500J0D01*
G01*
X117500Y15500D02*
G03*
X117500Y15500I-500J0D01*
G01*
Y20000D02*
G03*
X117500Y20000I-500J0D01*
G01*
X107413Y10800D02*
G03*
X107413Y10800I-500J0D01*
G01*
X99400Y-12000D02*
G03*
X99400Y-12000I-500J0D01*
G01*
X121300Y-24800D02*
G03*
X121300Y-24800I-500J0D01*
G01*
X139400Y450D02*
G03*
X139400Y450I-500J0D01*
G01*
X134800Y-59900D02*
G03*
X134800Y-59900I-500J0D01*
G01*
X86900Y-86200D02*
G03*
X86900Y-86200I-500J0D01*
G01*
X86500Y-106700D02*
G03*
X86500Y-106700I-500J0D01*
G01*
X93800Y-84500D02*
G03*
X93800Y-84500I-500J0D01*
G01*
X93500Y-104800D02*
G03*
X93500Y-104800I-500J0D01*
G01*
X139200Y-15800D02*
G03*
X139200Y-15800I-500J0D01*
G01*
Y-11600D02*
G03*
X139200Y-11600I-500J0D01*
G01*
X139300Y8900D02*
G03*
X139300Y8900I-500J0D01*
G01*
X139400Y4600D02*
G03*
X139400Y4600I-500J0D01*
G01*
Y-3700D02*
G03*
X139400Y-3700I-500J0D01*
G01*
X111613Y17429D02*
G03*
X111613Y17429I-500J0D01*
G01*
X146600Y-103600D02*
G03*
X146600Y-103600I-500J0D01*
G01*
X155400Y-105300D02*
G03*
X155400Y-105300I-500J0D01*
G01*
X149700Y-86300D02*
G03*
X149700Y-86300I-500J0D01*
G01*
X149800Y-81700D02*
G03*
X149800Y-81700I-500J0D01*
G01*
X101213Y-23600D02*
X102787D01*
X102000Y-24387D02*
Y-22813D01*
X101213Y-27100D02*
X102787D01*
X102000Y-27887D02*
Y-26313D01*
X127100Y-70787D02*
Y-69213D01*
X126313Y-70000D02*
X127887D01*
X141700Y-70687D02*
Y-69113D01*
X140913Y-69900D02*
X142487D01*
X146100Y-92587D02*
Y-91013D01*
X145313Y-91800D02*
X146887D01*
X133300Y-93087D02*
Y-91513D01*
X132513Y-92300D02*
X134087D01*
X133300Y-97287D02*
Y-95713D01*
X132513Y-96500D02*
X134087D01*
X133300Y-88887D02*
X133300Y-87313D01*
X132513Y-88100D02*
X134087D01*
X85413Y-65700D02*
X86987D01*
X86200Y-66487D02*
Y-64913D01*
X93100Y-64687D02*
Y-63113D01*
X92313Y-63900D02*
X93887D01*
X129813Y-24900D02*
X131387D01*
X130600Y-25687D02*
Y-24113D01*
X106913Y16713D02*
Y18287D01*
X106125Y17500D02*
X107700D01*
X116213Y15500D02*
X117787D01*
X117000Y14713D02*
Y16287D01*
X116213Y20000D02*
X117787D01*
X117000Y19213D02*
Y20787D01*
X106913Y10013D02*
Y11587D01*
X106125Y10800D02*
X107700D01*
X98900Y-12787D02*
Y-11213D01*
X98113Y-12000D02*
X99687D01*
X120800Y-25587D02*
Y-24013D01*
X120013Y-24800D02*
X121587D01*
X138113Y450D02*
X139687D01*
X138900Y-337D02*
Y1237D01*
X133513Y-59900D02*
X135087D01*
X134300Y-60687D02*
Y-59113D01*
X86400Y-86987D02*
Y-85413D01*
X85613Y-86200D02*
X87187D01*
X86000Y-107487D02*
Y-105913D01*
X85213Y-106700D02*
X86787D01*
X92513Y-84500D02*
X94087D01*
X93300Y-85287D02*
Y-83713D01*
X92213Y-104800D02*
X93787D01*
X93000Y-105587D02*
Y-104013D01*
X138700Y-16587D02*
Y-15013D01*
X137913Y-15800D02*
X139487D01*
X137913Y-11600D02*
X139487D01*
X138700Y-12387D02*
Y-10813D01*
X138800Y8113D02*
Y9687D01*
X138013Y8900D02*
X139587D01*
X138113Y4600D02*
X139687Y4600D01*
X138900Y3813D02*
Y5387D01*
X138113Y-3700D02*
X139687D01*
X138900Y-4487D02*
Y-2913D01*
X111113Y16641D02*
Y18216D01*
X110326Y17429D02*
X111900D01*
X145313Y-103600D02*
X146887D01*
X146100Y-104387D02*
Y-102813D01*
X154900Y-106087D02*
Y-104513D01*
X154113Y-105300D02*
X155687D01*
X149200Y-87087D02*
Y-85513D01*
X148413Y-86300D02*
X149987D01*
X149300Y-82487D02*
Y-80913D01*
X148513Y-81700D02*
X150087D01*
D90*
X119278Y-6700D02*
G03*
X119278Y-6700I-1378J0D01*
G01*
X55978Y-84850D02*
G03*
X55978Y-84850I-1378J0D01*
G01*
X75778Y-67700D02*
G03*
X75778Y-67700I-1378J0D01*
G01*
X55978Y-64500D02*
G03*
X55978Y-64500I-1378J0D01*
G01*
Y-105200D02*
G03*
X55978Y-105200I-1378J0D01*
G01*
X159678Y-18200D02*
G03*
X159678Y-18200I-1378J0D01*
G01*
X164578Y-67000D02*
G03*
X164578Y-67000I-1378J0D01*
G01*
X13978Y-5158D02*
G03*
X13978Y-5158I-1378J0D01*
G01*
Y-72742D02*
G03*
X13978Y-72742I-1378J0D01*
G01*
X75778Y-88150D02*
G03*
X75778Y-88150I-1378J0D01*
G01*
Y-108600D02*
G03*
X75778Y-108600I-1378J0D01*
G01*
X158678Y-110100D02*
G03*
X158678Y-110100I-1378J0D01*
G01*
X115931Y-6700D02*
X119869D01*
X117900Y-8669D02*
Y-4732D01*
X52631Y-84850D02*
X56568D01*
X54600Y-86818D02*
Y-82881D01*
X72431Y-67700D02*
X76368D01*
X74400Y-69669D02*
Y-65732D01*
X52631Y-64500D02*
X56568D01*
X54600Y-66469D02*
Y-62532D01*
X52631Y-105200D02*
X56568D01*
X54600Y-107168D02*
Y-103232D01*
X156332Y-18200D02*
X160268D01*
X158300Y-20168D02*
Y-16231D01*
X142183Y-56783D02*
Y-29617D01*
X115017Y-56783D02*
Y-29617D01*
X142183D01*
X115017Y-56783D02*
X142183D01*
X163200Y-68968D02*
Y-65031D01*
X161232Y-67000D02*
X165168D01*
X12600Y-7126D02*
Y-3189D01*
X10632Y-5158D02*
X14569D01*
X12600Y-74711D02*
Y-70774D01*
X10632Y-72742D02*
X14569D01*
X74400Y-90118D02*
Y-86181D01*
X72431Y-88150D02*
X76368D01*
X74400Y-110568D02*
Y-106632D01*
X72431Y-108600D02*
X76368D01*
X150246Y-102946D02*
X166781D01*
X150246Y-88773D02*
X166781D01*
X150246D02*
X150246Y-102946D01*
X166781D02*
Y-88773D01*
X157300Y-112068D02*
Y-108132D01*
X155332Y-110100D02*
X159268D01*
D91*
X96807Y14300D02*
G03*
X96807Y14300I-707J0D01*
G01*
X95100D02*
X97100D01*
X96100Y13300D02*
Y15300D01*
D92*
X99700Y-15261D02*
X99900Y-15062D01*
X72471Y-70504D02*
X72671Y-70304D01*
X72471Y-111104D02*
X72671Y-110904D01*
X72471Y-90804D02*
X72671Y-90604D01*
M02*
